#N canvas 0 0 450 300 10;
#X obj 22 92 -;
#X text 53 120 delay;
#X obj 22 46 t f b;
#X obj 37 70 f 100;
#X obj 22 200 f 100;
#X obj 22 160 t b f;
#X obj 22 220 +;
#X obj 227 91 -;
#X text 254 119 delay;
#X obj 227 45 t f b;
#X obj 242 69 f 100;
#X obj 227 199 f 100;
#X obj 227 159 t b f;
#X obj 227 219 +;
#X obj 22 120 / 10;
#X obj 227 119 / 10;
#X text 282 69 old y;
#X text 77 70 old x;
#X obj 22 255 outlet;
#X obj 227 253 outlet;
#X obj 22 15 inlet;
#X obj 227 14 inlet;
#X obj 325 16 inlet;
#X floatatom 110 117 5 0 0 0 - - -;
#X obj 122 -11 loadbang;
#X msg 122 57 20;
#X obj 122 17 \$1;
#X obj 122 37 select 0;
#X text 146 118 steps;
#X connect 0 0 14 0;
#X connect 2 0 0 0;
#X connect 2 1 3 0;
#X connect 3 0 0 1;
#X connect 4 0 6 0;
#X connect 5 0 4 0;
#X connect 5 1 6 1;
#X connect 6 0 4 1;
#X connect 6 0 3 1;
#X connect 6 0 18 0;
#X connect 7 0 15 0;
#X connect 9 0 7 0;
#X connect 9 1 10 0;
#X connect 10 0 7 1;
#X connect 11 0 13 0;
#X connect 12 0 11 0;
#X connect 12 1 13 1;
#X connect 13 0 11 1;
#X connect 13 0 10 1;
#X connect 13 0 19 0;
#X connect 14 0 5 0;
#X connect 15 0 12 0;
#X connect 20 0 2 0;
#X connect 21 0 9 0;
#X connect 22 0 23 0;
#X connect 23 0 15 1;
#X connect 23 0 14 1;
#X connect 24 0 26 0;
#X connect 25 0 23 0;
#X connect 26 0 27 0;
#X connect 27 0 25 0;
#X connect 27 1 23 0;
#X coords 0 -1 1 1 85 35 1 100 100;
