#N canvas 201 223 574 474 10;
#X obj 106 134 envgen 203 123 1 0  ;
#X obj 104 311 line;
#X obj 104 387 outlet;
#X obj 266 115 bng 15 250 50 0 empty empty empty 17 7 0 10 -262144
-1 -1;
#X msg 17 44 duration \$1;
#X obj 104 -31 inlet;
#X text 101 -53 bang to output data;
#X obj 205 338 outlet;
#X text 250 338 bang when done;
#X obj 174 -16 inlet;
#X text 279 -45 reset;
#X obj 264 -28 inlet;
#X text 281 114 reset;
#X obj 157 116 nbx 5 14 10 1e+37 0 0 empty empty empty 0 -8 0 10 -262144
-1 -1 6000 256;
#X obj 367 -6 loadbang;
#X obj 205 52 delay 10;
#X text 212 115 duration;
#X msg 367 61 100;
#X text 186 -31 duration;
#X text 345 195 units are in milliseconds (ms);
#X obj 113 115 bng 15 250 50 0 empty empty empty 17 7 0 10 -262144
-1 -1;
#X text 128 115 go;
#X obj 317 -28 inlet;
#X text 332 -45 list;
#X msg 115 24 0 7 1 5 0.7 20 0.3 50;
#X obj 367 23 \$1;
#X obj 367 42 select 0;
#X obj 104 355 change;
#X connect 0 0 1 0;
#X connect 1 0 27 0;
#X connect 3 0 24 0;
#X connect 4 0 0 0;
#X connect 5 0 15 0;
#X connect 5 0 20 0;
#X connect 9 0 13 0;
#X connect 11 0 3 0;
#X connect 13 0 4 0;
#X connect 13 0 15 1;
#X connect 14 0 3 0;
#X connect 14 0 25 0;
#X connect 15 0 7 0;
#X connect 17 0 13 0;
#X connect 20 0 0 0;
#X connect 22 0 0 0;
#X connect 24 0 0 0;
#X connect 25 0 26 0;
#X connect 26 0 17 0;
#X connect 26 1 13 0;
#X connect 27 0 2 0;
#X coords 0 -1 1 1 217 165 1 100 100;
