#N canvas 450 294 574 474 10;
#X obj 106 134 envgen 203 123 1 0  ;
#X msg 121 66 0 50 1 50;
#X obj 104 311 line;
#X obj 104 337 outlet;
#X obj 266 115 bng 15 250 50 0 empty empty empty 17 7 0 10 -262144
-1 -1;
#X msg 17 44 duration \$1;
#X obj 104 -31 inlet;
#X text 101 -53 bang to output data;
#X obj 205 338 outlet;
#X text 250 338 bang when done;
#X obj 174 -16 inlet;
#X text 279 -45 reset;
#X obj 264 -28 inlet;
#X text 281 114 reset;
#X obj 157 116 nbx 5 14 10 1e+037 0 0 empty empty empty 0 -8 0 10 -262144
-1 -1 100 256;
#X obj 366 45 f \$1;
#X obj 366 -6 loadbang;
#X obj 470 47 f \$4;
#X obj 433 46 f \$3;
#X obj 400 45 f \$2;
#X obj 366 17 t b b b b;
#X obj 366 75 pack f f f f;
#X obj 205 52 delay 10;
#X text 212 115 duration;
#X msg 299 59 100;
#X text 186 -31 duration;
#X text 345 195 units are in milliseconds (ms);
#X obj 113 115 bng 15 250 50 0 empty empty empty 17 7 0 10 -262144
-1 -1;
#X text 128 115 go;
#X obj 317 -28 inlet;
#X text 332 -45 list;
#X connect 0 0 2 0;
#X connect 1 0 0 0;
#X connect 2 0 3 0;
#X connect 4 0 1 0;
#X connect 5 0 0 0;
#X connect 6 0 22 0;
#X connect 6 0 27 0;
#X connect 10 0 14 0;
#X connect 12 0 4 0;
#X connect 14 0 5 0;
#X connect 14 0 22 1;
#X connect 15 0 21 0;
#X connect 16 0 20 0;
#X connect 16 0 24 0;
#X connect 17 0 21 3;
#X connect 18 0 21 2;
#X connect 19 0 21 1;
#X connect 20 0 15 0;
#X connect 20 1 19 0;
#X connect 20 2 18 0;
#X connect 20 3 17 0;
#X connect 21 0 0 0;
#X connect 22 0 8 0;
#X connect 24 0 14 0;
#X connect 27 0 0 0;
#X connect 29 0 0 0;
#X coords 0 -1 1 1 217 165 1 100 100;
