#N canvas 574 139 450 300 10;
#X obj 39 201 spigot 1;
#X obj 39 24 t f f;
#X obj 39 -6 inlet;
#X obj 39 249 outlet;
#X obj 208 -7 inlet;
#X obj 309 -17 loadbang;
#X obj 84 -13 inlet;
#X obj 84 145 <= 1;
#X obj 117 145 >= 1;
#X obj 308 30 f \$2;
#X msg 114 76 2;
#X msg 84 75 1;
#X obj 84 39 select > < 1 0;
#X obj 242 31 symbol \$1;
#X obj 84 18 symbol \$1;
#X obj 309 7 t b b b;
#X msg 350 77 1;
#X obj 84 111 cyclone/gate 2;
#X connect 0 0 3 0;
#X connect 1 0 0 0;
#X connect 1 1 17 1;
#X connect 2 0 1 0;
#X connect 4 0 7 1;
#X connect 4 0 8 1;
#X connect 5 0 15 0;
#X connect 6 0 14 0;
#X connect 7 0 0 1;
#X connect 8 0 0 1;
#X connect 9 0 7 1;
#X connect 9 0 8 1;
#X connect 10 0 17 0;
#X connect 11 0 17 0;
#X connect 12 0 11 0;
#X connect 12 1 10 0;
#X connect 12 3 11 0;
#X connect 12 4 10 0;
#X connect 13 0 12 0;
#X connect 14 0 12 0;
#X connect 15 0 13 0;
#X connect 15 1 9 0;
#X connect 15 2 16 0;
#X connect 16 0 17 0;
#X connect 17 0 7 0;
#X connect 17 1 8 0;
