#N canvas 0 0 450 300 10;
#X floatatom 99 232 5 0 0 0 - - -;
#X floatatom 99 109 5 0 0 0 - - -;
#X floatatom 229 147 5 0 0 0 - - -;
#X text 241 129 threshold;
#X text 27 22 forces values bigger or smaller than thereshold to thereshold
value;
#X msg 125 148 <;
#X msg 177 147 >;
#X obj 154 148 tgl 15 0 empty empty empty 17 7 0 10 -262144 -1 -1 0
1;
#X text 122 128 0 for < \, 1 for >;
#X text 26 52 default is : bigger than 0;
#X obj 99 176 ehu/force < 10;
#X connect 1 0 10 0;
#X connect 2 0 10 2;
#X connect 5 0 10 1;
#X connect 6 0 10 1;
#X connect 7 0 10 1;
#X connect 10 0 0 0;
