#N canvas 393 234 450 300 10;
#X obj 85 66 ehu/packer3 helloworld;
#X obj 86 145 print from_packer3;
#X floatatom 200 36 5 0 0 0 - - -;
#X floatatom 149 33 5 0 0 0 - - -;
#X floatatom 80 34 5 0 0 0 - - -;
#X connect 0 0 1 0;
#X connect 2 0 0 2;
#X connect 3 0 0 1;
#X connect 4 0 0 0;
