#N canvas 296 166 450 491 10;
#X floatatom 103 116 5 0 0 0 - - -;
#X floatatom 139 116 5 0 0 0 - - -;
#X obj 143 150 t b f;
#X obj 182 151 t b f;
#X obj 110 247 outlet;
#X floatatom 176 116 5 0 0 0 - - -;
#X obj -2 -67 inlet;
#X obj 108 -65 inlet;
#X obj 213 -65 inlet;
#X obj 100 150 t b f;
#X obj -4 138 loadbang;
#X msg 110 222 \$1 \$2 \$3 \$4;
#X obj 111 195 pack s f f f;
#X obj -4 164 symbol \$1;
#X msg 0 31 range \$1 \$2;
#X obj 0 9 pack f f;
#X obj 25 -14 t b f;
#X msg 108 36 range \$1 \$2;
#X obj 108 14 pack f f;
#X obj 133 -9 t b f;
#X msg 212 34 range \$1 \$2;
#X obj 212 12 pack f f;
#X obj 237 -11 t b f;
#X obj 212 -34 route min max;
#X obj 108 -32 route min max;
#X obj 0 -37 route min max;
#X connect 0 0 9 0;
#X connect 1 0 2 0;
#X connect 2 0 12 0;
#X connect 2 1 12 2;
#X connect 3 0 12 0;
#X connect 3 1 12 3;
#X connect 5 0 3 0;
#X connect 6 0 25 0;
#X connect 7 0 24 0;
#X connect 8 0 23 0;
#X connect 9 0 12 0;
#X connect 9 1 12 1;
#X connect 10 0 13 0;
#X connect 11 0 4 0;
#X connect 12 0 11 0;
#X connect 13 0 12 0;
#X connect 14 0 0 0;
#X connect 15 0 14 0;
#X connect 16 0 15 0;
#X connect 16 1 15 1;
#X connect 17 0 1 0;
#X connect 18 0 17 0;
#X connect 19 0 18 0;
#X connect 19 1 18 1;
#X connect 20 0 5 0;
#X connect 21 0 20 0;
#X connect 22 0 21 0;
#X connect 22 1 21 1;
#X connect 23 0 21 0;
#X connect 23 1 22 0;
#X connect 23 2 5 0;
#X connect 24 0 18 0;
#X connect 24 1 19 0;
#X connect 24 2 1 0;
#X connect 25 0 15 0;
#X connect 25 1 16 0;
#X connect 25 2 0 0;
#X coords 0 -1 1 1 110 36 1 100 100;
