#N canvas 393 234 450 300 10;
#X obj 85 95 ehu/packer4 helloworld;
#X obj 84 173 print from_packer4;
#X floatatom 69 37 5 0 0 0 - - -;
#X floatatom 136 37 5 0 0 0 - - -;
#X floatatom 180 40 5 0 0 0 - - -;
#X floatatom 235 38 5 0 0 0 - - -;
#X connect 0 0 1 0;
#X connect 2 0 0 0;
#X connect 3 0 0 1;
#X connect 4 0 0 2;
#X connect 5 0 0 3;
