#N canvas 296 166 450 491 10;
#X floatatom 103 116 5 0 0 0 - - -;
#X floatatom 139 116 5 0 0 0 - - -;
#X obj 143 150 t b f;
#X obj 182 151 t b f;
#X obj 110 247 outlet;
#X floatatom 176 116 5 0 0 0 - - -;
#X obj -2 -67 inlet;
#X obj 108 -65 inlet;
#X obj 213 -65 inlet;
#X obj 100 150 t b f;
#X obj -4 138 loadbang;
#X obj -4 164 symbol \$1;
#X msg 0 31 range \$1 \$2;
#X obj 0 9 pack f f;
#X obj 25 -14 t b f;
#X msg 108 36 range \$1 \$2;
#X obj 108 14 pack f f;
#X obj 133 -9 t b f;
#X msg 212 34 range \$1 \$2;
#X obj 212 12 pack f f;
#X obj 237 -11 t b f;
#X obj 212 -34 route min max;
#X obj 108 -32 route min max;
#X obj 0 -37 route min max;
#X obj 221 151 t b f;
#X floatatom 213 116 5 0 0 0 - - -;
#X obj 314 -65 inlet;
#X msg 313 34 range \$1 \$2;
#X obj 313 12 pack f f;
#X obj 313 -34 route min max;
#X obj 111 195 pack s f f f f;
#X msg 110 223 \$1 \$2 \$3 \$4 \$5;
#X connect 0 0 9 0;
#X connect 1 0 2 0;
#X connect 2 0 30 0;
#X connect 2 1 30 2;
#X connect 3 0 30 0;
#X connect 3 1 30 3;
#X connect 5 0 3 0;
#X connect 6 0 23 0;
#X connect 7 0 22 0;
#X connect 8 0 21 0;
#X connect 9 0 30 0;
#X connect 9 1 30 1;
#X connect 10 0 11 0;
#X connect 11 0 30 0;
#X connect 12 0 0 0;
#X connect 13 0 12 0;
#X connect 14 0 13 0;
#X connect 14 1 13 1;
#X connect 15 0 1 0;
#X connect 16 0 15 0;
#X connect 17 0 16 0;
#X connect 17 1 16 1;
#X connect 18 0 5 0;
#X connect 19 0 18 0;
#X connect 20 0 19 0;
#X connect 20 1 19 1;
#X connect 21 0 19 0;
#X connect 21 1 20 0;
#X connect 21 2 5 0;
#X connect 22 0 16 0;
#X connect 22 1 17 0;
#X connect 22 2 1 0;
#X connect 23 0 13 0;
#X connect 23 1 14 0;
#X connect 23 2 0 0;
#X connect 24 0 30 0;
#X connect 24 1 30 4;
#X connect 25 0 24 0;
#X connect 26 0 29 0;
#X connect 27 0 25 0;
#X connect 28 0 27 0;
#X connect 29 0 28 0;
#X connect 29 2 25 0;
#X connect 30 0 31 0;
#X connect 31 0 4 0;
#X coords 0 -1 1 1 148 36 1 100 100;
