#N canvas 398 88 505 451 10;
#X declare -lib ggee;
#X msg -82 140 open \$1;
#X obj 26 -70 inlet;
#X obj -26 320 outlet;
#X obj -81 -65 inlet;
#X text -20 336 < send data;
#X obj -26 215 gemhead;
#X obj 3 18 cnv 15 167 30 empty empty empty 20 12 0 14 -233017 -66577
0;
#X obj 5 29 tgl 15 0 empty empty on 0 -6 0 7 -262144 -1 -1 1 1;
#X symbolatom 26 31 15 0 0 2 file - -;
#X obj 89 -56 delay 1000;
#X obj 89 -82 loadbang;
#X obj 26 -20 symbol \$1;
#X obj 122 29 bng 15 250 50 0 empty empty open 0 -6 0 10 -262144 -1
-1;
#X obj 122 57 openpanel;
#X obj -26 262 pix_image;
#X msg 49 168 set \$1;
#X obj 240 46 r globalobjects;
#X obj 225 110 s globalobjects;
#X obj 225 89 + 1;
#X obj 225 67 f 1;
#X text -51 85 file name;
#X text 254 82 render order;
#X obj -26 236 alpha;
#X msg 122 78 set \$1;
#X obj 100 310 namecanvas \$0-bla;
#X obj 99 288 s \$0-bla;
#X obj 99 243 r EHU_gop;
#X text 164 241 w h of canvas / x y of red window;
#X msg 99 264 donecanvasdialog 1 -1 \$1 0 -1 1 1 170 85 100 100;
#N canvas 0 0 450 300 makepath 0;
#X obj 153 22 inlet;
#X obj 153 175 outlet;
#X obj 32 23 inlet;
#X obj 32 178 outlet;
#X obj 32 60 symbol;
#X obj 32 134 list;
#X obj 32 80 t b s;
#X obj 316 161 import ggee;
#X obj 32 106 ggee/getdir 2;
#X obj 153 97 ggee/getdir 2;
#X obj 32 157 makesymbol %s/%s;
#X connect 0 0 9 0;
#X connect 2 0 4 0;
#X connect 4 0 6 0;
#X connect 5 0 10 0;
#X connect 6 0 8 0;
#X connect 6 1 5 1;
#X connect 8 0 5 0;
#X connect 9 0 1 0;
#X connect 10 0 3 0;
#X restore -82 103 pd makepath;
#X text 155 -56 wait a sec;
#X obj 5 141 print loading;
#N canvas 448 162 450 300 dealwith 0;
#X msg -44 51 quality \$1;
#X msg -4 76 mode \$1;
#X msg 201 85 1;
#X msg 49 52 set \$1;
#X obj -44 -26 inlet;
#X obj 201 62 loadbang;
#X obj -29 143 outlet;
#X obj 49 142 outlet;
#X obj 109 135 outlet;
#X obj -44 24 route quality mode index set;
#X connect 0 0 6 0;
#X connect 1 0 6 0;
#X connect 2 0 1 0;
#X connect 2 0 8 0;
#X connect 3 0 7 0;
#X connect 4 0 9 0;
#X connect 5 0 2 0;
#X connect 9 0 0 0;
#X connect 9 1 1 0;
#X connect 9 2 3 0;
#X connect 9 3 3 0;
#X connect 9 4 8 0;
#X restore -81 -29 pd dealwith;
#X connect 0 0 14 0;
#X connect 1 0 11 0;
#X connect 3 0 32 0;
#X connect 5 0 22 0;
#X connect 7 0 5 0;
#X connect 8 0 29 0;
#X connect 9 0 11 0;
#X connect 10 0 9 0;
#X connect 10 0 19 0;
#X connect 11 0 8 0;
#X connect 12 0 13 0;
#X connect 13 0 0 0;
#X connect 13 0 23 0;
#X connect 14 0 2 0;
#X connect 15 0 5 0;
#X connect 16 0 19 1;
#X connect 18 0 17 0;
#X connect 19 0 18 0;
#X connect 19 0 15 0;
#X connect 22 0 14 0;
#X connect 23 0 8 0;
#X connect 26 0 28 0;
#X connect 28 0 25 0;
#X connect 29 0 0 0;
#X connect 29 0 31 0;
#X connect 32 1 5 0;
#X connect 32 2 7 0;
#X coords 0 -1 1 1 170 50 1 1 1;
