#N canvas 71 115 718 520 10;
#X obj 21 -60 inlet;
#X obj 58 -60 inlet;
#X obj 133 -60 inlet;
#X obj 95 -60 inlet;
#X obj -30 159 translateXYZ \$2 \$3 1;
#X obj 135 273 * 0.5;
#X obj -30 353 rectangle 150 100;
#X obj 2 18 cnv 15 172 60 empty empty empty 20 12 0 14 -233017 -66577
0;
#X floatatom 30 32 5 0 0 2 xloc - -;
#X floatatom 65 32 5 0 0 2 yloc - -;
#X floatatom 100 32 5 0 0 2 width - -;
#X floatatom 135 32 5 0 0 2 height - -;
#X obj 67 -114 loadbang;
#X floatatom 30 61 3 0 100 2 R - -;
#X floatatom 53 61 3 0 100 2 G - -;
#X floatatom 76 61 3 0 100 2 B - -;
#X floatatom 135 61 5 0 0 2 rotation - -;
#X obj -30 194 rotateXYZ;
#X obj 192 179 f;
#X obj 178 -60 inlet;
#X obj 30 -22 f \$1;
#X obj 65 -22 f \$2;
#X obj 100 -22 f \$3;
#X obj 133 -22 f \$4;
#X obj 178 -22 f \$5;
#X obj 247 114 * 0.01;
#X obj 199 113 * 0.01;
#X obj 152 113 * 0.01;
#X obj 249 334 namecanvas \$0-bla;
#X obj 249 308 s \$0-bla;
#X obj 249 263 r EHU_gop;
#X text 363 260 w h of canvas / x y of red window;
#X obj 262 -60 inlet;
#X obj 226 -60 inlet;
#X obj 298 -60 inlet;
#X obj -107 -68 inlet;
#X text 171 -80 rotation;
#X text -113 -92 texture;
#X msg 249 284 donecanvasdialog 1 -1 \$1 0 -1 1 1 218 85 0 0;
#X text 51 -77 x \, y \, w \, h;
#X msg 185 294 50;
#X obj 310 1 loadbang;
#X obj -30 317 spigot 1;
#X obj 26 317 spigot 0;
#X obj 4 131 markex/invert;
#X obj 4 45 vradio 15 1 0 2 empty empty empty 0 -8 0 10 -262144 -1
-1 0;
#X obj 113 350 disk 150;
#X obj -30 231 spigot 1;
#X obj 4 22 tgl 15 0 empty empty empty 17 7 0 10 -262144 -1 -1 1 1
;
#X msg -13 -23 1;
#X msg 200 10 100;
#X obj 100 273 * 0.5;
#X obj -107 124 pix_texture;
#X obj -128 24 r EHU_quality;
#X obj -128 44 r EHU_mode;
#X msg -119 -20 quality \$1;
#X msg -71 1 mode \$1;
#X obj -59 -69 inlet;
#X obj -99 -44 route quality mode;
#X obj -107 68 separator;
#X obj -107 88 pix_separator;
#X obj -30 271 color 1 1 1 0;
#X obj -30 293 alpha;
#X floatatom 99 60 3 0 100 2 A - -;
#X obj 303 115 * 0.01;
#X obj 249 138 t b f;
#X obj 199 137 t b f;
#X obj 303 138 t b f;
#X obj 192 199 pack f f f f;
#X obj 335 -60 inlet;
#X text 256 -77 R G B A;
#X connect 0 0 20 0;
#X connect 1 0 21 0;
#X connect 2 0 23 0;
#X connect 3 0 22 0;
#X connect 4 0 17 0;
#X connect 5 0 6 2;
#X connect 8 0 4 1;
#X connect 9 0 4 2;
#X connect 10 0 51 0;
#X connect 11 0 5 0;
#X connect 12 0 20 0;
#X connect 12 0 21 0;
#X connect 12 0 22 0;
#X connect 12 0 23 0;
#X connect 12 0 24 0;
#X connect 13 0 27 0;
#X connect 14 0 26 0;
#X connect 15 0 25 0;
#X connect 16 0 17 3;
#X connect 17 0 47 0;
#X connect 18 0 68 0;
#X connect 19 0 24 0;
#X connect 20 0 8 0;
#X connect 21 0 9 0;
#X connect 22 0 10 0;
#X connect 23 0 11 0;
#X connect 24 0 16 0;
#X connect 25 0 65 0;
#X connect 26 0 66 0;
#X connect 27 0 18 0;
#X connect 30 0 38 0;
#X connect 32 0 14 0;
#X connect 33 0 13 0;
#X connect 34 0 15 0;
#X connect 35 0 59 0;
#X connect 38 0 29 0;
#X connect 40 0 46 2;
#X connect 41 0 40 0;
#X connect 41 0 49 0;
#X connect 41 0 50 0;
#X connect 42 0 6 0;
#X connect 43 0 46 0;
#X connect 44 0 42 1;
#X connect 45 0 44 0;
#X connect 45 0 43 1;
#X connect 47 0 61 0;
#X connect 48 0 47 1;
#X connect 49 0 48 0;
#X connect 50 0 15 0;
#X connect 50 0 14 0;
#X connect 50 0 13 0;
#X connect 51 0 6 1;
#X connect 51 0 46 1;
#X connect 52 0 4 0;
#X connect 53 0 52 0;
#X connect 54 0 52 0;
#X connect 55 0 52 0;
#X connect 56 0 52 0;
#X connect 57 0 58 0;
#X connect 58 0 55 0;
#X connect 58 1 56 0;
#X connect 58 2 48 0;
#X connect 59 0 60 0;
#X connect 60 0 52 0;
#X connect 61 0 62 0;
#X connect 62 0 42 0;
#X connect 62 0 43 0;
#X connect 63 0 64 0;
#X connect 64 0 67 0;
#X connect 65 0 18 0;
#X connect 65 1 68 2;
#X connect 66 0 18 0;
#X connect 66 1 68 1;
#X connect 67 0 18 0;
#X connect 67 1 68 3;
#X connect 68 0 61 1;
#X connect 69 0 63 0;
#X coords 0 -1 1 1 175 81 1 0 0;
