#N canvas 81 78 810 581 10;
#X declare -lib ggee;
#X msg -89 147 open \$1;
#X obj 0 -130 inlet;
#X obj -44 -130 inlet;
#X obj -55 306 s \$0l;
#X obj 95 381 outlet;
#X obj -67 383 outlet;
#X obj 68 -127 inlet;
#X obj 188 383 outlet;
#X text -88 109 movie name;
#X obj -122 382 outlet;
#X obj -89 -130 inlet;
#X obj 25 87 s \$0play;
#X obj 411 83 r \$0play;
#X text 75 -143 loop;
#X obj 5 108 s \$0loop;
#X text 17 -149 import;
#X obj 188 306 r \$0loop;
#X text -37 171 < current frame to play;
#X obj 388 148 r \$0loop;
#X text -119 344 < send data;
#X obj -28 149 gemhead;
#X obj 3 16 cnv 15 85 32 empty empty empty 20 12 0 14 -233017 -66577
0;
#X obj 5 30 tgl 15 0 empty empty on 0 -6 0 7 -262144 -1 -1 0 1;
#X obj 24 30 tgl 15 0 empty empty play -2 -6 0 7 -262144 -1 -1 0 1
;
#X obj 44 30 tgl 15 0 empty empty loop 0 -6 0 7 -262144 -1 -1 1 1;
#X obj 405 322 outlet~;
#X obj -89 182 pix_film;
#X obj 96 -96 loadbang;
#X obj 1 -93 symbol \$1;
#X obj 64 30 bng 15 250 50 0 empty empty open 0 -6 0 8 -262144 -1 -1
;
#X msg 297 10 set \$1;
#X obj 369 -103 loadbang;
#X obj 384 -77 r globalobjects;
#X obj 369 -16 s globalobjects;
#X obj 369 -36 + 1;
#X obj 369 -57 f 1;
#X text 396 -62 render order;
#X text 98 364 current frame;
#X text 195 363 bang on last frame;
#X obj 490 52 namecanvas \$0-bla;
#X obj 489 30 s \$0-bla;
#X obj 489 -15 r EHU_gop;
#X text 496 -33 GOP;
#X msg 489 6 donecanvasdialog 1 -1 \$1 0 -1 1 1 265 85 1 1;
#X text -69 362 length \, width \, height;
#X obj -67 257 unpack f f f;
#X obj -24 382 outlet;
#X obj 20 382 outlet;
#X text -50 -147 play/pause;
#X obj 149 136 s \$0snd;
#X obj -77 121 r \$0snd;
#N canvas 76 344 450 353 frame_counter 0;
#X obj 63 11 inlet;
#X obj 144 10 inlet;
#X obj 189 13 inlet;
#X obj 235 11 inlet;
#X obj 56 299 outlet;
#X obj 157 304 outlet;
#X obj 309 295 outlet;
#N canvas 660 384 271 298 fps_counter 0;
#X obj 89 48 t b f;
#X msg 89 67 1000;
#X text 120 87 <fpstomsc;
#X obj 38 174 metro 100;
#X obj 89 87 / 10;
#X text 52 158 <fps;
#X text 122 28 default fps;
#X obj 38 -9 inlet;
#X obj 38 215 outlet;
#X obj 116 216 outlet;
#X obj 116 135 moses 0;
#X msg 155 158 up;
#X msg 116 158 down;
#X obj 89 -9 inlet;
#X obj 89 110 t f f;
#X obj 89 135 abs;
#X text 2 134 only positive;
#X obj 89 27 f 25;
#X connect 0 0 1 0;
#X connect 0 1 4 1;
#X connect 1 0 4 0;
#X connect 3 0 8 0;
#X connect 4 0 14 0;
#X connect 7 0 3 0;
#X connect 10 0 12 0;
#X connect 10 1 11 0;
#X connect 11 0 9 0;
#X connect 12 0 9 0;
#X connect 13 0 17 0;
#X connect 14 0 15 0;
#X connect 14 1 10 0;
#X connect 15 0 3 1;
#X connect 17 0 0 0;
#X restore 63 56 pd fps_counter;
#X msg 166 57 min \$1;
#X msg 213 57 max \$1;
#X obj 157 210 bng 15 200 100 0 empty empty empty 17 7 0 10 -262144
-1 -1;
#X msg 261 57 jam \$1;
#X obj 289 11 inlet;
#X obj 349 17 inlet;
#X msg 157 281 0;
#X obj 157 258 select 0;
#X text 184 240 if not looped stop;
#X obj 157 239 f 1;
#X obj 157 190 spigot;
#X obj 190 171 tgl 15 0 empty empty empty 17 7 0 10 -262144 -1 -1 0
1;
#X obj 157 150 t b b;
#X obj 144 95 cyclone/counter;
#X obj 257 151 print VIDEOEND;
#X obj 296 126 print COUNTER_ARGS;
#X connect 0 0 7 0;
#X connect 1 0 7 1;
#X connect 2 0 8 0;
#X connect 3 0 9 0;
#X connect 7 0 21 0;
#X connect 7 1 21 0;
#X connect 8 0 21 0;
#X connect 8 0 23 0;
#X connect 9 0 21 0;
#X connect 9 0 23 0;
#X connect 10 0 6 0;
#X connect 10 0 17 0;
#X connect 11 0 21 0;
#X connect 11 0 23 0;
#X connect 12 0 11 0;
#X connect 13 0 17 1;
#X connect 14 0 5 0;
#X connect 15 0 14 0;
#X connect 17 0 15 0;
#X connect 18 0 10 0;
#X connect 19 0 18 1;
#X connect 20 0 18 0;
#X connect 20 1 19 0;
#X connect 21 0 4 0;
#X connect 21 1 20 0;
#X connect 21 2 20 0;
#X connect 21 2 22 0;
#X restore 95 329 pd frame_counter;
#X text -92 -145 on/off;
#X obj 95 287 r \$0play;
#N canvas 0 0 450 300 makepath 0;
#X obj 32 23 inlet;
#X obj 32 178 outlet;
#X obj 32 60 symbol;
#X obj 32 134 list;
#X obj 32 80 t b s;
#X obj 287 125 import ggee;
#X obj 32 106 ggee/getdir 2;
#X obj 32 157 makesymbol %s/%s;
#X connect 0 0 2 0;
#X connect 2 0 4 0;
#X connect 3 0 7 0;
#X connect 4 0 6 0;
#X connect 4 1 3 1;
#X connect 6 0 3 0;
#X connect 7 0 1 0;
#X restore -89 78 pd makepath;
#X obj 149 95 openpanel;
#X obj 149 115 symbol \$1;
#X obj 96 -41 delay 2200;
#X text -17 306 length in frames;
#N canvas 448 162 450 300 dealwith 0;
#X msg -44 51 quality \$1;
#X msg -4 76 mode \$1;
#X msg 201 85 1;
#X msg 49 52 set \$1;
#X obj -44 -26 inlet;
#X obj 201 62 loadbang;
#X obj -29 143 outlet;
#X obj 49 142 outlet;
#X obj 109 135 outlet;
#X obj -44 24 route quality mode index set;
#X connect 0 0 6 0;
#X connect 1 0 6 0;
#X connect 2 0 1 0;
#X connect 2 0 8 0;
#X connect 3 0 7 0;
#X connect 4 0 9 0;
#X connect 5 0 2 0;
#X connect 9 0 0 0;
#X connect 9 1 1 0;
#X connect 9 2 3 0;
#X connect 9 3 3 0;
#X connect 9 4 8 0;
#X restore -89 -58 pd dealwith;
#X obj 553 241 bng 15 250 50 0 empty empty empty 17 7 0 10 -262144
-1 -1;
#N canvas 453 221 347 312 findwav 0;
#X obj 21 30 inlet;
#X obj 21 215 outlet;
#X obj 21 107 unpack s s;
#X msg 21 133 \$1 wav;
#X obj 21 154 pack s s;
#X text 162 41 /home/r2d2/myvideo.avi;
#X text 162 68 /home/r2d2/myvideo.wav;
#X obj 21 82 symbol2list .;
#X obj 21 175 list2symbol .;
#X text 165 28 receives a path like;
#X text 166 54 and returns;
#X connect 0 0 7 0;
#X connect 2 0 3 0;
#X connect 3 0 4 0;
#X connect 4 0 8 0;
#X connect 7 0 2 0;
#X connect 8 0 1 0;
#X restore 510 109 pd findwav;
#X obj 510 130 t b s;
#X msg 537 152 set open \$1;
#X obj 474 147 t f b;
#X obj 474 129 tgl 15 0 empty empty empty 17 7 0 10 -262144 -1 -1 0
1;
#X obj 474 233 readsf~ 2;
#X obj 553 296 print SND_END;
#X obj 553 266 symbol;
#X obj 541 200 print open;
#X obj 469 329 outlet~;
#X text 526 332 audio;
#X obj 355 177 spigot;
#X msg 355 201 1;
#X msg 510 174 open /home/r2d2/Dropbox/ixi/pd/ehu_abstractions2/examples/whistle.wav
;
#X obj 152 291 r \$0l;
#X text 172 -10 fps;
#X obj 139 -6 f \$2;
#X obj 139 14 select 0;
#X msg 184 35 30;
#X connect 0 0 26 0;
#X connect 1 0 28 0;
#X connect 2 0 23 0;
#X connect 6 0 24 0;
#X connect 10 0 59 0;
#X connect 12 0 65 0;
#X connect 16 0 51 5;
#X connect 18 0 72 1;
#X connect 20 0 26 0;
#X connect 22 0 20 0;
#X connect 23 0 11 0;
#X connect 24 0 14 0;
#X connect 26 0 9 0;
#X connect 26 1 45 0;
#X connect 27 0 24 0;
#X connect 27 0 57 0;
#X connect 28 0 54 0;
#X connect 29 0 55 0;
#X connect 30 0 20 0;
#X connect 31 0 35 0;
#X connect 32 0 35 1;
#X connect 34 0 33 0;
#X connect 35 0 34 0;
#X connect 35 0 30 0;
#X connect 41 0 43 0;
#X connect 43 0 40 0;
#X connect 45 0 5 0;
#X connect 45 0 3 0;
#X connect 45 1 46 0;
#X connect 45 2 47 0;
#X connect 50 0 0 0;
#X connect 51 0 26 1;
#X connect 51 0 4 0;
#X connect 51 1 23 0;
#X connect 51 2 7 0;
#X connect 51 2 72 0;
#X connect 53 0 51 0;
#X connect 54 0 0 0;
#X connect 54 0 61 0;
#X connect 55 0 56 0;
#X connect 56 0 49 0;
#X connect 56 0 61 0;
#X connect 57 0 28 0;
#X connect 57 0 77 0;
#X connect 59 1 20 0;
#X connect 59 2 22 0;
#X connect 60 0 68 0;
#X connect 61 0 62 0;
#X connect 61 0 68 1;
#X connect 62 0 74 0;
#X connect 62 1 63 0;
#X connect 63 0 74 0;
#X connect 64 0 66 0;
#X connect 64 1 74 0;
#X connect 65 0 64 0;
#X connect 66 0 25 0;
#X connect 66 1 70 0;
#X connect 66 2 60 0;
#X connect 68 0 67 0;
#X connect 72 0 73 0;
#X connect 73 0 65 0;
#X connect 74 0 66 0;
#X connect 74 0 69 0;
#X connect 75 0 51 3;
#X connect 77 0 78 0;
#X connect 78 0 51 1;
#X connect 78 1 79 0;
#X connect 79 0 51 1;
#X coords 0 -1 1 1 88 50 1 1 1;
