#N canvas 0 354 1418 507 10;
#X text -112 11 main DMX control. argument is COM port of DMX interface
;
#X obj 26 136 cnv 15 1730 35 empty empty empty 20 12 0 14 -261682 -66577
0;
#X obj 31 137 ehu/dmx/slider 1;
#X obj 28 198 cnv 15 1730 35 empty empty empty 20 12 0 14 -204786 -66577
0;
#X obj 23 263 cnv 15 1730 35 empty empty empty 20 12 0 14 -204800 -66577
0;
#N canvas 0 22 450 278 (subpatch) 0;
#X coords 0 1 100 -1 10 340 1 0 0;
#X restore 647 159 graph;
#X obj -126 309 cnv 15 1730 35 empty empty empty 20 12 0 14 -261682
-66577 0;
#X obj -126 347 cnv 15 1730 35 empty empty empty 20 12 0 14 -204786
-66577 0;
#X obj -129 385 cnv 15 1730 35 empty empty empty 20 12 0 14 -204800
-66577 0;
#X obj -112 51 ehu/dmx/control 5;
#N canvas 475 116 866 454 txalaparta 1;
#X obj 224 -32 ehu/in~;
#X obj 233 34 ehu/hit_sensor;
#X obj 213 143 bng 15 250 50 0 empty empty empty 17 7 0 10 -262144
-1 -1;
#X obj 166 141 s bang;
#X msg 316 14 5;
#X obj 647 169 vsl 15 128 0 255 0 0 empty empty empty 0 -9 0 10 -258113
-1 -1 0 1;
#X obj 554 166 vsl 15 128 0 255 0 0 empty empty empty 0 -9 0 10 -4034
-1 -1 0 1;
#X obj 412 167 vsl 15 128 0 255 0 0 empty empty empty 0 -9 0 10 -4032
-1 -1 0 1;
#X floatatom 424 13 5 0 0 0 - - -, f 5;
#X floatatom 467 84 5 0 0 0 - - -, f 5;
#X obj 423 -11 r ampl;
#X obj 458 38 autoscale 0 250;
#X floatatom 489 60 5 0 0 0 - - -, f 5;
#X obj 423 58 moses 20;
#X obj 583 85 moses 150;
#X obj 510 85 moses 80;
#X obj 417 103 bng 15 250 50 0 empty empty empty 17 7 0 10 -262144
-1 -1;
#X obj 554 111 bng 15 250 50 0 empty empty empty 17 7 0 10 -262144
-1 -1;
#X obj 639 114 bng 15 250 50 0 empty empty empty 17 7 0 10 -262144
-1 -1;
#X obj 538 135 s bangG;
#X floatatom 284 149 5 0 0 0 - - -, f 5;
#X obj 284 171 s ampl;
#X obj 118 -55 loadbang;
#X msg 206 -58 0.04;
#X obj 400 132 s bangB;
#X obj 627 139 s bangR;
#X connect 0 0 1 0;
#X connect 1 0 2 0;
#X connect 1 1 20 0;
#X connect 2 0 3 0;
#X connect 4 0 1 5;
#X connect 8 0 11 0;
#X connect 10 0 8 0;
#X connect 11 0 12 0;
#X connect 11 0 13 0;
#X connect 13 1 9 0;
#X connect 13 1 15 0;
#X connect 14 0 17 0;
#X connect 14 1 18 0;
#X connect 15 0 16 0;
#X connect 15 1 14 0;
#X connect 16 0 24 0;
#X connect 17 0 19 0;
#X connect 18 0 25 0;
#X connect 20 0 21 0;
#X connect 22 0 23 0;
#X connect 23 0 0 0;
#X restore 235 6 pd txalaparta;
#X obj 29 199 ehu/dmx/slider 2;
#X obj 33 262 ehu/dmx/slider 3;
#X msg -94 29 4;
#X msg -128 28 5;
#X msg -31 30 2;
#X msg -63 30 3;
#X msg -1 30 1;
#X msg 28 31 0;
#X obj 389 103 ehu/dmx/sendto;
#X floatatom 325 79 5 0 0 0 - - -, f 5;
#X obj 388 56 i;
#X msg 375 19 0 \, 255 3000;
#X obj 785 83 ehu/dmx/sendto;
#X floatatom 743 79 5 0 0 0 - - -, f 5;
#X obj 784 36 i;
#X msg 771 -1 0 \, 255 3000;
#X obj 774 -26 r bangG;
#X obj 1192 81 ehu/dmx/sendto;
#X floatatom 1149 49 5 0 0 0 - - -, f 5;
#X obj 1191 34 i;
#X msg 1178 -3 0 \, 255 3000;
#X obj 184 136 ehu/dmx/slider 4;
#X obj 185 198 ehu/dmx/slider 5;
#X obj 187 261 ehu/dmx/slider 6;
#X obj 342 136 ehu/dmx/slider 7;
#X obj 342 198 ehu/dmx/slider 8;
#X obj 344 261 ehu/dmx/slider 9;
#X obj 499 137 ehu/dmx/slider 10;
#X obj 499 199 ehu/dmx/slider 11;
#X obj 501 262 ehu/dmx/slider 12;
#X obj 655 137 ehu/dmx/slider 13;
#X obj 655 199 ehu/dmx/slider 14;
#X obj 657 262 ehu/dmx/slider 15;
#X obj 812 138 ehu/dmx/slider 16;
#X obj 812 200 ehu/dmx/slider 17;
#X obj 814 263 ehu/dmx/slider 18;
#X obj 969 138 ehu/dmx/slider 19;
#X obj 969 200 ehu/dmx/slider 20;
#X obj 971 263 ehu/dmx/slider 21;
#X obj 1126 139 ehu/dmx/slider 22;
#X obj 1126 201 ehu/dmx/slider 23;
#X obj 1128 264 ehu/dmx/slider 24;
#X obj 1281 139 ehu/dmx/slider 25;
#X obj 1281 201 ehu/dmx/slider 26;
#X obj 1283 264 ehu/dmx/slider 27;
#X obj 1438 139 ehu/dmx/slider 28;
#X obj 1438 201 ehu/dmx/slider 29;
#X obj 1440 264 ehu/dmx/slider 30;
#X obj 1595 140 ehu/dmx/slider 31;
#X obj 1595 202 ehu/dmx/slider 32;
#X obj 1597 265 ehu/dmx/slider 33;
#X obj -125 307 ehu/dmx/slider 34;
#X obj -128 349 ehu/dmx/slider 35;
#X obj -129 385 ehu/dmx/slider 36;
#X obj 30 308 ehu/dmx/slider 37;
#X obj 28 348 ehu/dmx/slider 38;
#X obj 28 385 ehu/dmx/slider 39;
#X obj 187 308 ehu/dmx/slider 40;
#X obj 184 348 ehu/dmx/slider 41;
#X obj 185 385 ehu/dmx/slider 42;
#X obj 344 309 ehu/dmx/slider 43;
#X obj 341 349 ehu/dmx/slider 44;
#X obj 342 386 ehu/dmx/slider 45;
#X obj 500 309 ehu/dmx/slider 46;
#X obj 497 349 ehu/dmx/slider 47;
#X obj 498 386 ehu/dmx/slider 48;
#X obj 657 310 ehu/dmx/slider 49;
#X obj 656 350 ehu/dmx/slider 50;
#X obj 655 387 ehu/dmx/slider 51;
#X obj 812 307 ehu/dmx/slider 52;
#X obj 811 350 ehu/dmx/slider 53;
#X obj 812 388 ehu/dmx/slider 54;
#X obj 969 308 ehu/dmx/slider 55;
#X obj 968 351 ehu/dmx/slider 56;
#X obj 969 389 ehu/dmx/slider 57;
#X obj 1124 308 ehu/dmx/slider 58;
#X obj 1123 351 ehu/dmx/slider 59;
#X obj 1124 389 ehu/dmx/slider 60;
#X obj 1281 308 ehu/dmx/slider 61;
#X obj 1280 351 ehu/dmx/slider 62;
#X obj 1281 389 ehu/dmx/slider 63;
#X obj 1438 309 ehu/dmx/slider 64;
#X obj 1437 352 ehu/dmx/slider 65;
#X obj 1438 390 ehu/dmx/slider 66;
#X obj 378 -6 r bangR;
#X obj 1181 -28 r bangB;
#X msg 363 75 \$1 1 4 7 10 13 16 19 22 25 28 31;
#X msg 530 52 \$1 1 4 7 10 13 16 19 22 25 28 31;
#X obj 458 39 line;
#X obj 373 37 line;
#X floatatom 605 87 5 0 0 0 - - -, f 5;
#X msg 786 55 \$1 2 5 8 11 14 17 20 23 26 29 32;
#X msg 906 38 \$1 2 5 8 11 14 17 20 23 26 29 32;
#X msg 1193 53 \$1 3 6 9 12 15 18 21 24 27 30 33;
#X msg 1358 51 \$1 3 6 9 12 15 18 21 24 27 30 33;
#X obj 769 17 line;
#X obj 854 19 line;
#X obj 1176 15 line;
#X obj 1262 45 line;
#X obj 458 -2 delay 2500;
#X obj 854 -22 delay 2500;
#X obj 1262 4 delay 2500;
#X msg 458 19 255 \, 0 3000;
#X msg 854 -1 255 \, 0 3000;
#X msg 1262 25 255 \, 0 3000;
#X obj 588 -153 bng 15 250 50 0 empty empty empty 17 7 0 10 -262144
-1 -1;
#X obj 607 -154 bng 15 250 50 0 empty empty empty 17 7 0 10 -262144
-1 -1;
#X obj 628 -154 bng 15 250 50 0 empty empty empty 17 7 0 10 -262144
-1 -1;
#X obj 647 -155 bng 15 250 50 0 empty empty empty 17 7 0 10 -262144
-1 -1;
#X obj 606 -234 hradio 15 1 0 11 empty empty empty 0 -8 0 10 -262144
-1 -1 6;
#X obj 743 -209 metro 500;
#X obj 744 -237 tgl 15 0 empty empty empty 17 7 0 10 -262144 -1 -1
1 1;
#X obj 568 -278 metro 500;
#X obj 569 -306 tgl 15 0 empty empty empty 17 7 0 10 -262144 -1 -1
1 1;
#X obj 632 -211 + 1;
#X msg 530 -138 250;
#X msg 539 -87 0;
#X msg 590 -132 250;
#X msg 628 -131 250;
#X msg 669 -132 250;
#X obj 527 -110 delay 200;
#X msg 601 -87 0;
#X obj 589 -110 delay 200;
#X msg 669 -85 0;
#X obj 657 -108 delay 200;
#X msg 731 -85 0;
#X obj 719 -108 delay 200;
#X obj 545 -54 s r1;
#X obj 29 108 r r1;
#X obj 185 107 r r4;
#X obj 346 110 r r7;
#X obj 599 -55 s r4;
#X obj 666 -54 s r7;
#X obj 678 112 r r13;
#X obj 505 111 r r10;
#X obj 731 -52 s r10;
#X obj 605 -260 count 11;
#X obj 679 -190 gate 11, f 55;
#X obj 846 -153 bng 15 250 50 0 empty empty empty 17 7 0 10 -262144
-1 -1;
#X obj 865 -154 bng 15 250 50 0 empty empty empty 17 7 0 10 -262144
-1 -1;
#X obj 886 -154 bng 15 250 50 0 empty empty empty 17 7 0 10 -262144
-1 -1;
#X obj 905 -155 bng 15 250 50 0 empty empty empty 17 7 0 10 -262144
-1 -1;
#X msg 788 -138 250;
#X msg 797 -87 0;
#X msg 848 -132 250;
#X msg 886 -131 250;
#X msg 927 -132 250;
#X obj 785 -110 delay 200;
#X msg 859 -87 0;
#X obj 847 -110 delay 200;
#X msg 927 -85 0;
#X obj 915 -108 delay 200;
#X msg 989 -85 0;
#X obj 977 -108 delay 200;
#X obj 803 -54 s r13;
#X obj 857 -55 s r16;
#X obj 924 -54 s r19;
#X obj 989 -52 s r22;
#X obj 818 111 r r16;
#X obj 971 113 r r19;
#X obj 1128 114 r r22;
#X obj 1288 114 r r25;
#X obj 1440 108 r r28;
#X obj 1598 113 r r31;
#X obj 1109 -154 bng 15 250 50 0 empty empty empty 17 7 0 10 -262144
-1 -1;
#X obj 1128 -155 bng 15 250 50 0 empty empty empty 17 7 0 10 -262144
-1 -1;
#X obj 1149 -155 bng 15 250 50 0 empty empty empty 17 7 0 10 -262144
-1 -1;
#X msg 1051 -139 250;
#X msg 1060 -88 0;
#X msg 1111 -133 250;
#X msg 1149 -132 250;
#X obj 1048 -111 delay 200;
#X msg 1122 -88 0;
#X obj 1110 -111 delay 200;
#X msg 1190 -86 0;
#X obj 1178 -109 delay 200;
#X obj 1066 -55 s r25;
#X obj 1120 -56 s r28;
#X obj 1187 -55 s r31;
#N canvas 0 23 1169 382 secuencer 1;
#X obj 72 54 bng 15 250 50 0 empty empty empty 17 7 0 10 -262144 -1
-1;
#X obj 91 53 bng 15 250 50 0 empty empty empty 17 7 0 10 -262144 -1
-1;
#X obj 112 53 bng 15 250 50 0 empty empty empty 17 7 0 10 -262144 -1
-1;
#X obj 131 52 bng 15 250 50 0 empty empty empty 17 7 0 10 -262144 -1
-1;
#X obj 58 -28 hradio 15 1 0 11 empty empty empty 0 -8 0 10 -262144
-1 -1 9;
#X obj 284 -58 tgl 15 0 empty empty empty 17 7 0 10 -262144 -1 -1 1
1;
#X obj 53 -99 tgl 15 0 empty empty empty 17 7 0 10 -262144 -1 -1 1
1;
#X obj 116 -4 + 1;
#X msg 14 69 250;
#X msg 23 120 0;
#X msg 74 75 250;
#X msg 112 76 250;
#X msg 153 75 250;
#X obj 11 97 delay 200;
#X msg 85 120 0;
#X obj 73 97 delay 200;
#X msg 153 122 0;
#X obj 141 99 delay 200;
#X msg 215 122 0;
#X obj 203 99 delay 200;
#X obj 89 -53 count 11;
#X obj 163 17 gate 11, f 55;
#X obj 330 54 bng 15 250 50 0 empty empty empty 17 7 0 10 -262144 -1
-1;
#X obj 349 53 bng 15 250 50 0 empty empty empty 17 7 0 10 -262144 -1
-1;
#X obj 370 53 bng 15 250 50 0 empty empty empty 17 7 0 10 -262144 -1
-1;
#X obj 389 52 bng 15 250 50 0 empty empty empty 17 7 0 10 -262144 -1
-1;
#X msg 272 69 250;
#X msg 281 120 0;
#X msg 332 75 250;
#X msg 370 76 250;
#X msg 411 75 250;
#X obj 269 97 delay 200;
#X msg 343 120 0;
#X obj 331 97 delay 200;
#X msg 411 122 0;
#X obj 399 99 delay 200;
#X msg 473 122 0;
#X obj 461 99 delay 200;
#X obj 593 53 bng 15 250 50 0 empty empty empty 17 7 0 10 -262144 -1
-1;
#X obj 612 52 bng 15 250 50 0 empty empty empty 17 7 0 10 -262144 -1
-1;
#X obj 633 52 bng 15 250 50 0 empty empty empty 17 7 0 10 -262144 -1
-1;
#X msg 535 68 250;
#X msg 544 119 0;
#X msg 595 74 250;
#X msg 633 75 250;
#X obj 532 96 delay 200;
#X msg 606 119 0;
#X obj 594 96 delay 200;
#X msg 674 121 0;
#X obj 662 98 delay 200;
#X obj 89 204 outlet;
#X obj 140 205 outlet;
#X obj 187 205 outlet;
#X obj 238 206 outlet;
#X obj 285 204 outlet;
#X obj 336 205 outlet;
#X obj 383 205 outlet;
#X obj 434 206 outlet;
#X obj 479 205 outlet;
#X obj 530 206 outlet;
#X obj 577 206 outlet;
#X obj 180 -94 inlet;
#X obj 52 -71 metro 700;
#X obj 321 -25 metro 700;
#X connect 0 0 8 0;
#X connect 0 0 13 0;
#X connect 1 0 10 0;
#X connect 1 0 15 0;
#X connect 2 0 11 0;
#X connect 2 0 17 0;
#X connect 3 0 12 0;
#X connect 3 0 19 0;
#X connect 4 0 7 0;
#X connect 5 0 63 0;
#X connect 6 0 62 0;
#X connect 7 0 21 0;
#X connect 8 0 50 0;
#X connect 9 0 50 0;
#X connect 10 0 51 0;
#X connect 11 0 52 0;
#X connect 12 0 53 0;
#X connect 13 0 9 0;
#X connect 14 0 51 0;
#X connect 15 0 14 0;
#X connect 15 0 51 0;
#X connect 16 0 52 0;
#X connect 17 0 16 0;
#X connect 17 0 52 0;
#X connect 18 0 53 0;
#X connect 19 0 18 0;
#X connect 19 0 53 0;
#X connect 20 0 4 0;
#X connect 21 0 0 0;
#X connect 21 1 1 0;
#X connect 21 2 2 0;
#X connect 21 3 3 0;
#X connect 21 4 22 0;
#X connect 21 5 23 0;
#X connect 21 6 24 0;
#X connect 21 7 25 0;
#X connect 21 8 38 0;
#X connect 21 9 39 0;
#X connect 21 10 40 0;
#X connect 22 0 26 0;
#X connect 22 0 31 0;
#X connect 23 0 28 0;
#X connect 23 0 33 0;
#X connect 24 0 29 0;
#X connect 24 0 35 0;
#X connect 25 0 30 0;
#X connect 25 0 37 0;
#X connect 26 0 54 0;
#X connect 27 0 54 0;
#X connect 28 0 55 0;
#X connect 29 0 56 0;
#X connect 30 0 57 0;
#X connect 31 0 27 0;
#X connect 31 0 54 0;
#X connect 32 0 55 0;
#X connect 33 0 32 0;
#X connect 33 0 55 0;
#X connect 34 0 56 0;
#X connect 35 0 34 0;
#X connect 35 0 56 0;
#X connect 36 0 57 0;
#X connect 37 0 36 0;
#X connect 37 0 57 0;
#X connect 38 0 41 0;
#X connect 38 0 45 0;
#X connect 39 0 43 0;
#X connect 39 0 47 0;
#X connect 40 0 44 0;
#X connect 40 0 49 0;
#X connect 41 0 58 0;
#X connect 42 0 58 0;
#X connect 43 0 59 0;
#X connect 44 0 60 0;
#X connect 45 0 42 0;
#X connect 45 0 58 0;
#X connect 46 0 59 0;
#X connect 47 0 46 0;
#X connect 47 0 59 0;
#X connect 48 0 60 0;
#X connect 49 0 48 0;
#X connect 49 0 60 0;
#X connect 61 0 6 0;
#X connect 61 0 5 0;
#X connect 62 0 20 0;
#X connect 63 0 21 1;
#X restore 1237 -243 pd secuencer;
#X f 45;
#X obj 1232 -275 tgl 15 0 empty empty empty 17 7 0 10 -262144 -1 -1
1 1;
#X obj 29 175 r g2;
#X obj 35 239 r b3;
#X obj 1258 -189 s g2;
#X obj 1294 -188 s b3;
#X floatatom 1205 -202 5 0 0 0 - - -, f 5;
#X connect 13 0 9 0;
#X connect 14 0 9 0;
#X connect 15 0 9 0;
#X connect 16 0 9 0;
#X connect 17 0 9 0;
#X connect 18 0 9 0;
#X connect 21 0 97 0;
#X connect 22 0 100 0;
#X connect 25 0 102 0;
#X connect 26 0 106 0;
#X connect 27 0 26 0;
#X connect 27 0 111 0;
#X connect 30 0 104 0;
#X connect 31 0 108 0;
#X connect 95 0 22 0;
#X connect 95 0 110 0;
#X connect 96 0 31 0;
#X connect 96 0 112 0;
#X connect 97 0 19 0;
#X connect 98 0 19 0;
#X connect 99 0 98 0;
#X connect 99 0 101 0;
#X connect 100 0 20 0;
#X connect 100 0 21 0;
#X connect 102 0 23 0;
#X connect 103 0 23 0;
#X connect 104 0 28 0;
#X connect 105 0 28 0;
#X connect 106 0 24 0;
#X connect 106 0 25 0;
#X connect 107 0 103 0;
#X connect 108 0 29 0;
#X connect 108 0 30 0;
#X connect 109 0 105 0;
#X connect 110 0 113 0;
#X connect 111 0 114 0;
#X connect 112 0 115 0;
#X connect 113 0 99 0;
#X connect 114 0 107 0;
#X connect 115 0 109 0;
#X connect 116 0 126 0;
#X connect 116 0 131 0;
#X connect 117 0 128 0;
#X connect 117 0 133 0;
#X connect 118 0 129 0;
#X connect 118 0 135 0;
#X connect 119 0 130 0;
#X connect 119 0 137 0;
#X connect 120 0 125 0;
#X connect 121 0 148 1;
#X connect 122 0 121 0;
#X connect 123 0 147 0;
#X connect 124 0 123 0;
#X connect 125 0 148 0;
#X connect 126 0 138 0;
#X connect 127 0 138 0;
#X connect 128 0 142 0;
#X connect 129 0 143 0;
#X connect 130 0 146 0;
#X connect 131 0 127 0;
#X connect 132 0 142 0;
#X connect 133 0 132 0;
#X connect 134 0 143 0;
#X connect 135 0 134 0;
#X connect 136 0 146 0;
#X connect 137 0 136 0;
#X connect 139 0 2 0;
#X connect 140 0 32 0;
#X connect 141 0 35 0;
#X connect 144 0 41 0;
#X connect 145 0 38 0;
#X connect 147 0 120 0;
#X connect 148 0 116 0;
#X connect 148 1 117 0;
#X connect 148 2 118 0;
#X connect 148 3 119 0;
#X connect 148 4 149 0;
#X connect 148 5 150 0;
#X connect 148 6 151 0;
#X connect 148 7 152 0;
#X connect 148 8 175 0;
#X connect 148 9 176 0;
#X connect 148 10 177 0;
#X connect 149 0 153 0;
#X connect 149 0 158 0;
#X connect 150 0 155 0;
#X connect 150 0 160 0;
#X connect 151 0 156 0;
#X connect 151 0 162 0;
#X connect 152 0 157 0;
#X connect 152 0 164 0;
#X connect 153 0 165 0;
#X connect 154 0 165 0;
#X connect 155 0 166 0;
#X connect 156 0 167 0;
#X connect 157 0 168 0;
#X connect 158 0 154 0;
#X connect 159 0 166 0;
#X connect 160 0 159 0;
#X connect 161 0 167 0;
#X connect 162 0 161 0;
#X connect 163 0 168 0;
#X connect 164 0 163 0;
#X connect 169 0 44 0;
#X connect 170 0 47 0;
#X connect 171 0 50 0;
#X connect 172 0 53 0;
#X connect 173 0 56 0;
#X connect 174 0 59 0;
#X connect 175 0 178 0;
#X connect 175 0 182 0;
#X connect 176 0 180 0;
#X connect 176 0 184 0;
#X connect 177 0 181 0;
#X connect 177 0 186 0;
#X connect 178 0 187 0;
#X connect 179 0 187 0;
#X connect 180 0 188 0;
#X connect 181 0 189 0;
#X connect 182 0 179 0;
#X connect 183 0 188 0;
#X connect 184 0 183 0;
#X connect 185 0 189 0;
#X connect 186 0 185 0;
#X connect 190 1 194 0;
#X connect 190 1 196 0;
#X connect 190 2 195 0;
#X connect 191 0 190 0;
#X connect 192 0 11 0;
#X connect 193 0 12 0;
