#N canvas 1617 79 412 375 10;
#X obj 71 25 inlet;
#X text 141 13 1 index;
#X text 196 13 2 value;
#X text 252 82 light 2 is chan 4 \, 5 \, 6;
#X text 253 66 light 1 is chan 1 \, 2 \, 3;
#X obj 18 151 line;
#X obj 112 154 line;
#X obj 211 150 line;
#X msg 18 124 \$1 \$4;
#X text 27 106 RED;
#X msg 112 127 \$2 \$4;
#X text 104 105 GREEN;
#X msg 211 125 \$2 \$4;
#X floatatom 56 153 5 0 0 0 - - -, f 5;
#X floatatom 143 155 5 0 0 0 - - -, f 5;
#X floatatom 249 154 5 0 0 0 - - -, f 5;
#X msg 59 123 \$1 \$2;
#X msg 151 128 \$1 \$2;
#X msg 253 126 \$1 \$2;
#X text 210 104 BLUE;
#X obj 18 330 s DMXmsg;
#X obj 18 300 pack f f;
#X obj 18 178 t b f;
#X obj 18 210 \$1;
#X obj 18 232 * 3;
#X floatatom 43 253 5 0 0 0 - - -, f 5;
#X obj 211 331 s DMXmsg;
#X obj 211 301 pack f f;
#X text 271 301 chanel value;
#X obj 211 179 t b f;
#X obj 211 211 \$1;
#X obj 211 233 * 3;
#X floatatom 243 233 5 0 0 0 - - -, f 5;
#X obj 18 253 - 2;
#X obj 112 332 s DMXmsg;
#X obj 112 302 pack f f;
#X obj 112 180 t b f;
#X obj 112 212 \$1;
#X obj 112 234 * 3;
#X floatatom 137 255 5 0 0 0 - - -, f 5;
#X obj 112 255 - 1;
#X obj 256 278 i;
#X obj 157 276 i;
#X obj 63 278 i;
#X obj 71 60 route rgb r g b lights;
#X connect 0 0 44 0;
#X connect 5 0 13 0;
#X connect 5 0 22 0;
#X connect 6 0 14 0;
#X connect 6 0 36 0;
#X connect 7 0 15 0;
#X connect 7 0 29 0;
#X connect 8 0 5 0;
#X connect 10 0 6 0;
#X connect 12 0 7 0;
#X connect 16 0 5 0;
#X connect 17 0 6 0;
#X connect 18 0 7 0;
#X connect 21 0 20 0;
#X connect 22 0 23 0;
#X connect 22 1 43 0;
#X connect 23 0 24 0;
#X connect 24 0 33 0;
#X connect 27 0 26 0;
#X connect 29 0 30 0;
#X connect 29 1 41 0;
#X connect 30 0 31 0;
#X connect 31 0 32 0;
#X connect 31 0 27 0;
#X connect 33 0 25 0;
#X connect 33 0 21 0;
#X connect 35 0 34 0;
#X connect 36 0 37 0;
#X connect 36 1 42 0;
#X connect 37 0 38 0;
#X connect 38 0 40 0;
#X connect 40 0 39 0;
#X connect 40 0 35 0;
#X connect 41 0 27 1;
#X connect 42 0 35 1;
#X connect 43 0 21 1;
#X connect 44 0 8 0;
#X connect 44 0 10 0;
#X connect 44 0 12 0;
#X connect 44 1 16 0;
#X connect 44 2 17 0;
#X connect 44 3 18 0;
