#N canvas 499 198 484 653 10;
#X obj 71 25 inlet;
#X text 141 13 1 index;
#X text 196 13 2 value;
#X text 252 82 light 2 is chan 4 \, 5 \, 6;
#X text 253 66 light 1 is chan 1 \, 2 \, 3;
#X obj 22 206 line;
#X obj 158 214 line;
#X obj 306 210 line;
#X msg 22 179 \$1 \$4;
#X text 29 161 RED;
#X msg 158 187 \$2 \$4;
#X text 149 165 GREEN;
#X floatatom 60 208 5 0 0 0 - - -, f 5;
#X floatatom 189 215 5 0 0 0 - - -, f 5;
#X floatatom 344 214 5 0 0 0 - - -, f 5;
#X msg 63 178 \$1 \$2;
#X msg 197 188 \$1 \$2;
#X msg 348 186 \$1 \$2;
#X text 310 160 BLUE;
#X obj 22 543 s DMXmsg;
#X obj 22 513 pack f f;
#X obj 22 228 t b f;
#X obj 22 423 \$1;
#X obj 22 445 * 3;
#X floatatom 47 466 5 0 0 0 - - -, f 5;
#X obj 306 549 s DMXmsg;
#X obj 306 519 pack f f;
#X text 366 519 chanel value;
#X obj 306 232 t b f;
#X obj 306 429 \$1;
#X obj 306 451 * 3;
#X floatatom 338 451 5 0 0 0 - - -, f 5;
#X obj 22 466 - 2;
#X obj 158 550 s DMXmsg;
#X obj 158 520 pack f f;
#X obj 158 235 t b f;
#X obj 158 430 \$1;
#X obj 158 452 * 3;
#X floatatom 183 473 5 0 0 0 - - -, f 5;
#X obj 158 473 - 1;
#X obj 351 496 i;
#X obj 203 494 i;
#X obj 67 491 i;
#X obj 71 60 route rgb r g b lights;
#X obj 334 112 l;
#X text 381 115 1 2 3;
#X obj 22 313 until;
#X obj 22 396 list store;
#X obj 22 289 t b b l;
#X obj 22 338 f;
#X obj 60 339 + 1;
#X msg 22 367 get \$1 1;
#X msg 75 315 0;
#X obj 22 261 l;
#X obj 158 319 until;
#X obj 158 402 list store;
#X obj 158 295 t b b l;
#X obj 158 344 f;
#X obj 196 345 + 1;
#X msg 158 373 get \$1 1;
#X msg 211 321 0;
#X obj 158 267 l;
#X obj 306 312 until;
#X obj 306 395 list store;
#X obj 306 288 t b b l;
#X obj 306 337 f;
#X obj 344 338 + 1;
#X msg 306 366 get \$1 1;
#X msg 359 314 0;
#X obj 306 260 l;
#X obj 409 167 \$1;
#X obj 409 148 loadbang;
#X obj 436 82 bng 15 250 50 0 empty empty empty 17 7 0 10 -262144 -1
-1;
#X obj 409 186 select 0;
#X msg 409 209 4;
#X obj 409 241 f;
#X msg 306 185 \$3 \$4;
#X connect 0 0 43 0;
#X connect 5 0 12 0;
#X connect 5 0 21 0;
#X connect 6 0 13 0;
#X connect 6 0 35 0;
#X connect 7 0 14 0;
#X connect 7 0 28 0;
#X connect 8 0 5 0;
#X connect 10 0 6 0;
#X connect 15 0 5 0;
#X connect 16 0 6 0;
#X connect 17 0 7 0;
#X connect 20 0 19 0;
#X connect 21 0 53 0;
#X connect 21 1 42 0;
#X connect 22 0 23 0;
#X connect 23 0 32 0;
#X connect 26 0 25 0;
#X connect 28 0 69 0;
#X connect 28 1 40 0;
#X connect 29 0 30 0;
#X connect 30 0 31 0;
#X connect 30 0 26 0;
#X connect 32 0 24 0;
#X connect 32 0 20 0;
#X connect 34 0 33 0;
#X connect 35 0 61 0;
#X connect 35 1 41 0;
#X connect 36 0 37 0;
#X connect 37 0 39 0;
#X connect 39 0 38 0;
#X connect 39 0 34 0;
#X connect 40 0 26 1;
#X connect 41 0 34 1;
#X connect 42 0 20 1;
#X connect 43 0 8 0;
#X connect 43 0 10 0;
#X connect 43 0 76 0;
#X connect 43 1 15 0;
#X connect 43 2 16 0;
#X connect 43 3 17 0;
#X connect 43 4 44 0;
#X connect 44 0 53 1;
#X connect 44 0 61 1;
#X connect 44 0 69 1;
#X connect 46 0 49 0;
#X connect 47 0 22 0;
#X connect 47 1 46 1;
#X connect 48 0 46 0;
#X connect 48 1 52 0;
#X connect 48 2 47 1;
#X connect 49 0 50 0;
#X connect 49 0 51 0;
#X connect 50 0 49 1;
#X connect 51 0 47 0;
#X connect 52 0 49 1;
#X connect 53 0 48 0;
#X connect 54 0 57 0;
#X connect 55 0 36 0;
#X connect 55 1 54 1;
#X connect 56 0 54 0;
#X connect 56 1 60 0;
#X connect 56 2 55 1;
#X connect 57 0 58 0;
#X connect 57 0 59 0;
#X connect 58 0 57 1;
#X connect 59 0 55 0;
#X connect 60 0 57 1;
#X connect 61 0 56 0;
#X connect 62 0 65 0;
#X connect 63 0 29 0;
#X connect 63 1 62 1;
#X connect 64 0 62 0;
#X connect 64 1 68 0;
#X connect 64 2 63 1;
#X connect 65 0 66 0;
#X connect 65 0 67 0;
#X connect 66 0 65 1;
#X connect 67 0 63 0;
#X connect 68 0 65 1;
#X connect 69 0 64 0;
#X connect 70 0 73 0;
#X connect 71 0 70 0;
#X connect 72 0 70 0;
#X connect 73 0 74 0;
#X connect 73 1 75 0;
#X connect 74 0 75 0;
#X connect 75 0 30 1;
#X connect 75 0 37 1;
#X connect 75 0 23 1;
#X connect 76 0 7 0;
