#N canvas 2119 329 394 445 10;
#X text 180 21 1 index;
#X text 179 36 2 value;
#X obj 117 340 pack f f;
#X obj 83 55 list split 1;
#X obj 117 178 until;
#X obj 117 261 list store;
#X obj 117 154 t b b l;
#X obj 117 203 f;
#X obj 155 204 + 1;
#X msg 117 232 get \$1 1;
#X obj 117 121 list;
#X obj 117 79 t b l;
#X obj 117 100 delay 1;
#X obj 68 313 i;
#X text 172 341 chanel value;
#X msg 170 180 0;
#X obj 83 18 inlet;
#X obj 117 372 s DMXmsg;
#X obj 117 283 t f b;
#X connect 2 0 17 0;
#X connect 3 0 13 1;
#X connect 3 1 11 0;
#X connect 4 0 7 0;
#X connect 5 0 18 0;
#X connect 5 1 4 1;
#X connect 6 0 4 0;
#X connect 6 1 15 0;
#X connect 6 2 5 1;
#X connect 7 0 8 0;
#X connect 7 0 9 0;
#X connect 8 0 7 1;
#X connect 9 0 5 0;
#X connect 10 0 6 0;
#X connect 11 0 12 0;
#X connect 11 1 10 1;
#X connect 12 0 10 0;
#X connect 13 0 2 1;
#X connect 15 0 7 1;
#X connect 16 0 3 0;
#X connect 18 0 2 0;
#X connect 18 1 13 0;
