#N canvas 453 203 418 474 10;
#X declare -lib ggee;
#X obj 26 112 cnv 15 180 80 empty empty empty 20 12 0 14 -233017 -66577
0;
#X obj 28 16 cnv 15 150 90 empty empty empty 20 12 0 14 -4034 -66577
0;
#X obj 234 39 bng 35 250 50 0 empty empty click_me 40 10 0 10 -258079
-1 -1;
#X text 279 56 open video window;
#X text 66 28 open camera 0;
#X obj 61 229 bng 15 250 50 0 empty empty empty 0 -6 0 10 -262144 -1
-1;
#X obj 212 229 bng 15 250 50 0 empty empty empty 0 -6 0 10 -262144
-1 -1;
#X msg 61 247 imagen1.jpg;
#X msg 212 247 imagen1_320x240.jpg;
#X text 150 -16 Different image depending on value of X;
#X obj 99 212 moses 400;
#X text 162 209 > 400;
#X text 53 211 < 400;
#X obj 240 84 ehu/gem/win 800 600;
#X obj 54 117 ehu/gem/track;
#X obj 76 280 ehu/gem/picture imagen1.jpg;
#X text 248 292 image to display;
#X obj 76 344 ehu/gem/texture 400 300 800 600;
#X text 274 365 texture;
#X text 275 382 renderer;
#X obj 54 48 ehu/gem/cam 0;
#X floatatom 112 194 5 0 0 0 - - -;
#X connect 2 0 13 0;
#X connect 5 0 7 0;
#X connect 6 0 8 0;
#X connect 7 0 15 1;
#X connect 8 0 15 1;
#X connect 10 0 5 0;
#X connect 10 1 6 0;
#X connect 14 1 10 0;
#X connect 14 1 21 0;
#X connect 15 0 17 0;
#X connect 20 0 14 0;
