#N canvas 61 51 787 712 10;
#X declare -lib ggee;
#X declare -lib ggee;
#X declare -lib ggee;
#X obj 107 421 ehu/rev~;
#X obj 59 -10 ehu/dsp;
#X obj 318 520 ehu/plot;
#X obj 317 400 ehu/hit_sensor;
#X obj 316 280 ehu/pitch_sensor;
#X text -25 42 sound in;
#X text -48 116 mixes two sound signals;
#X text -54 221 volume of a sound signal;
#X text 8 286 just a delay;
#X text -30 355 basic ring modulator;
#X text -5 444 freeverb reverb;
#X text 29 572 sound out;
#X text -34 -9 PD dsp on/off;
#X text 444 427 listens for beats or hits;
#X obj 106 39 ehu/in~;
#X obj 106 211 ehu/vol~;
#X obj 108 561 ehu/out~;
#X obj 107 343 ehu/ring~;
#X obj 106 262 ehu/del~ 1000;
#X obj 106 105 ehu/mix~;
#N canvas 339 387 559 305 others 0;
#X obj 22 47 pddp/dsp;
#X obj 329 51 grid grid1 200 0 199 200 0 199 1 1 1 10 10 415 79;
#X obj 42 115 envgen 200 140 1 0  ;
#X text 39 89 envgen;
#X text 22 29 pddp/dsp;
#X text 329 22 unauthorized/grid;
#X text 34 -14 right click for help on each object;
#X obj 137 48 pan/equal_power_pan~;
#X restore 670 -27 pd others;
#X text 495 -47 interesting abstractions and object;
#X text 496 -34 from other libraries here >;
#X text 460 526 plots an audio signal;
#X text -36 -57 these are some basic abstractions that deal with sound.
note that rev~ just wraps freeverb~ external so that must be installed
and loaded;
#X obj 320 -3 ehu/splayer2~;
#X obj 330 250 ehu/splayer~;
#X obj 353 228 tgl 15 0 empty empty empty 17 7 0 10 -262144 -1 -1 0
1;
#X text 476 47 with loads of options;
#X text 417 248 simply plays a sound file;
#X text 477 29 plays a sound file;
#X obj 577 582 ehu/recorder~ rec1.wav;
#X text 447 324 analyses sound pitch;
#X obj 330 207 ehu/abs_path;
#X msg 330 188 numeros.wav;
#X obj 330 -32 ehu/abs_path;
#X msg 330 -51 numeros.wav;
#X obj -37 480 ehu/distorsion~;
#X obj -24 599 ehu/foldover~;
#X obj 546 141 ehu/limiter~;
#X text 548 121 just wraps zexys limiter;
#X connect 0 0 16 0;
#X connect 0 1 16 1;
#X connect 14 0 19 0;
#X connect 15 0 18 0;
#X connect 16 0 2 0;
#X connect 16 1 2 0;
#X connect 17 0 0 0;
#X connect 17 0 0 1;
#X connect 18 0 17 0;
#X connect 19 0 4 0;
#X connect 19 0 3 0;
#X connect 19 0 15 0;
#X connect 25 0 19 0;
#X connect 25 1 19 1;
#X connect 26 0 19 0;
#X connect 27 0 26 1;
#X connect 33 0 26 0;
#X connect 34 0 33 0;
#X connect 35 0 25 1;
#X connect 36 0 35 0;
