#N canvas 542 156 397 401 10;
#X declare -lib ggee;
#X declare -lib ggee;
#X obj -37 296 ehu/splayer~;
#X obj -38 326 ehu/out~;
#X obj 166 49 ehu/dsp;
#X obj -41 27 ehu/in~;
#X obj 166 23 loadbang;
#X obj -37 88 ehu/hit_sensor;
#X obj -37 246 t b s;
#X text 106 221 get rand file;
#X text 47 296 load and play it;
#X text 82 128 detect hits;
#X msg -37 268 1;
#X msg 41 267 0;
#X text 73 269 no loop;
#X text -40 -6 plays a random sound file from a folder on hit detected
;
#X obj -37 222 ehu/rand_file sounds;
#X connect 0 0 1 0;
#X connect 0 1 1 1;
#X connect 3 0 5 0;
#X connect 3 1 5 0;
#X connect 4 0 2 0;
#X connect 4 0 11 0;
#X connect 5 0 14 0;
#X connect 6 0 10 0;
#X connect 6 1 0 1;
#X connect 10 0 0 0;
#X connect 11 0 0 2;
#X connect 14 0 6 0;
