#N canvas 595 121 393 277 10;
#X declare -lib ggee;
#X declare -lib ggee;
#X obj 26 21 ehu/gem/win 400 300;
#X obj 52 157 ehu/gem/texture 100 100 200 200;
#X msg 196 -4 imagen1.jpg;
#X obj 211 60 ehu/abs_path;
#X obj 52 89 ehu/gem/picture imagen1.jpg;
#X msg 233 27 imagen1_320x240.jpg;
#X connect 2 0 3 0;
#X connect 3 0 4 1;
#X connect 4 0 1 0;
#X connect 5 0 3 0;
