#N canvas 316 233 672 404 10;
#X declare -lib ggee;
#X obj 11 40 cnv 15 350 130 empty empty empty 20 12 0 14 -233017 -66577
0;
#X obj 393 90 bng 30 250 50 0 empty empty click_me 0 -6 0 10 -258079
-1 -1;
#X text 408 133 open graphics window;
#X obj 393 151 ehu/gem/win 400 300;
#X obj 67 216 ehu/gem/video homer.avi;
#X obj 67 305 ehu/gem/texture 200 150 400 300;
#X obj 170 273 print;
#X obj 27 100 ehu/makeymakey;
#X text 18 52 this just wraps the GEM mouse and keyboard objects;
#X text 18 68 listening to the makeymakey events;
#X text 294 219 outlets :;
#X text 297 237 mouse X / mouse Y / left down / left up / middle down
/ middle up / right down / right up / W pressed / A pressed / S pressed
/ D pressed / F pressed;
#X text 10 -2 * the graphics window MUST be selected to detect the
events;
#X connect 1 0 3 0;
#X connect 1 0 4 1;
#X connect 4 0 5 0;
#X connect 4 5 6 0;
#X connect 7 0 5 2;
#X connect 7 1 5 3;
