#N canvas 443 59 506 294 10;
#X obj 210 10 tgl 25 0 empty empty empty 17 7 0 10 -258113 -1 -1 0
1;
#X obj 64 109 ehu/gem/texture 110 70 120 90;
#X obj 281 109 ehu/gem/texture 110 180 120 90;
#X obj 20 200 ehu/gem/texture 110 300 120 90;
#X obj 66 33 ehu/gem/cam 0;
#X obj 211 39 ehu/gem/win 220 420;
#X connect 0 0 5 0;
#X connect 4 0 1 0;
#X connect 4 0 2 0;
#X connect 4 0 3 0;
