#N canvas 523 50 611 652 10;
#X declare -lib ggee;
#X declare -lib ggee;
#X declare -lib ggee;
#X declare -lib ggee;
#X declare -lib ggee;
#X declare -lib ggee;
#X declare -lib ggee;
#X declare -lib ggee;
#X declare -lib ggee;
#X msg 81 29 whistle.mp4;
#X obj 81 91 print;
#X text 171 28 pass the name of a file that lives next to this patch
;
#X text 172 88 and abs_path will return the absolute path to that file
;
#X obj 35 309 ehu/gem/picture imagen1.jpg;
#X msg 194 259 imagen1.jpg;
#X obj 325 325 ehu/splayer~ whistle.wav;
#X text 37 140 ALL EHU object that load files (picture \, video \,
splayer~ splayer2~) can receive the file to load as argument.;
#X msg 372 264 whistle.wav;
#X text 39 171 Otherwise you should use abs_path to pass the path to
the objects;
#X obj 30 443 ehu/gem/video whistle.mp4;
#X msg 89 388 whistle.mp4;
#X text 35 202 This allows to move your files across directories or
computers with no path problems;
#X msg 355 379 whistle.wav;
#X obj 343 431 ehu/splayer2~ whistle.wav;
#X obj 194 288 ehu/abs_path;
#X obj 372 291 ehu/abs_path;
#X obj 356 403 ehu/abs_path;
#X obj 89 411 ehu/abs_path;
#X obj 81 59 ehu/abs_path;
#X connect 0 0 19 0;
#X connect 5 0 15 0;
#X connect 8 0 16 0;
#X connect 11 0 18 0;
#X connect 13 0 17 0;
#X connect 15 0 4 1;
#X connect 16 0 6 1;
#X connect 17 0 14 1;
#X connect 18 0 10 2;
#X connect 19 0 1 0;
