#N canvas 391 131 587 363 10;
#X declare -lib ggee;
#X declare -lib ggee;
#X declare -lib ggee;
#X declare -lib ggee;
#X declare -lib ggee;
#X obj 81 59 abs_path;
#X msg 81 29 whistle.mp4;
#X obj 81 91 print;
#X text 171 28 pass the name of a file that lives next to this patch
;
#X text 172 88 and abs_path will return the absolute path to that file
;
#X obj 32 275 ehu/gem/picture imagen1.jpg;
#X obj 191 254 abs_path;
#X msg 191 225 imagen1.jpg;
#X obj 308 281 ehu/splayer~ whistle.wav;
#X text 37 140 ALL EHU object that load files (picture \, video \,
splayer~ splayer2~) can receive the file to load as argument.;
#X obj 308 249 abs_path;
#X msg 308 221 whistle.wav;
#X connect 0 0 2 0;
#X connect 1 0 0 0;
#X connect 6 0 5 1;
#X connect 7 0 6 0;
#X connect 10 0 8 0;
#X connect 11 0 10 0;
