#N canvas 647 154 309 423 10;
#X declare -lib ggee;
#X declare -lib ggee;
#X obj 4 4 bng 35 250 50 0 empty empty click_me 40 10 0 10 -258079
-1 -1;
#X text 14 44 background image filling the screen;
#X text 10 235 image with alpha chanel that follows the mouse;
#X obj 142 11 ehu/gem/win 640 450;
#X obj 17 268 ehu/gem/mouse;
#X msg 41 79 1;
#X msg 117 219 index 10;
#X obj 120 64 ehu/gem/picture imagen1.jpg;
#X obj 117 253 ehu/gem/picture alpha.tif;
#X obj 5 132 ehu/gem/texture 320 225 640 450;
#X obj 19 327 ehu/gem/texture 100 100 100 100;
#X connect 0 0 3 0;
#X connect 0 0 5 0;
#X connect 4 0 10 2;
#X connect 4 1 10 3;
#X connect 5 0 6 0;
#X connect 6 0 8 0;
#X connect 7 0 9 0;
#X connect 8 0 10 0;
