#N canvas 256 160 671 343 10;
#X declare -lib ggee;
#X declare -lib ggee;
#X obj 357 93 ehu/gem/win 600 400;
#X obj 296 258 ehu/gem/texture 300 200 600 400;
#X obj 296 153 ehu/gem/video whistle.mp4;
#X obj 469 208 ehu/out~;
#X obj 325 15 bng 50 250 50 0 empty empty empty 17 7 0 10 -258113 -1
-1;
#X text 357 71 open graphics window;
#X text 520 161 read video;
#X text 501 290 display it;
#X text 604 212 play snd;
#X obj 20 60 ehu/in~;
#X obj 435 45 ehu/dsp;
#X obj 21 121 ehu/pitch_sensor;
#X obj 150 195 autoscale 5 100;
#X obj 155 47 ehu/plot;
#X text 19 7 fades video depending on sound in amplitude;
#X connect 2 0 1 0;
#X connect 2 6 3 0;
#X connect 2 7 3 1;
#X connect 4 0 2 1;
#X connect 4 0 0 0;
#X connect 4 0 10 0;
#X connect 9 0 11 0;
#X connect 9 0 13 0;
#X connect 9 1 11 0;
#X connect 9 1 13 0;
#X connect 11 3 12 0;
#X connect 12 0 1 10;
