#N canvas 465 121 531 577 10;
#X declare -lib ggee;
#X declare -lib ggee;
#X obj 51 139 ehu/splayer2~;
#X obj 297 287 ehu/splayer~;
#X obj 320 265 tgl 15 0 empty empty empty 17 7 0 10 -262144 -1 -1 0
1;
#X text 384 285 simply plays a sound file;
#X obj 297 244 ehu/abs_path;
#X msg 297 225 numeros.wav;
#X obj 95 103 ehu/abs_path;
#X msg 95 84 numeros.wav;
#X obj 133 -21 ehu/dsp;
#X text 40 -20 PD dsp on/off;
#X obj 118 411 ehu/out~;
#X msg 26 42 /home/r2d2/Dropbox/ixi/pd/ehu_abstractions2/examples/numeros.wav
;
#X text 168 84 local file;
#X connect 0 0 10 0;
#X connect 0 1 10 1;
#X connect 1 0 10 0;
#X connect 1 1 10 1;
#X connect 2 0 1 1;
#X connect 4 0 1 0;
#X connect 5 0 4 0;
#X connect 6 0 0 1;
#X connect 7 0 6 0;
#X connect 11 0 0 1;
