#N canvas 430 65 378 455 10;
#X declare -lib ggee;
#X obj 201 1 ehu/dsp;
#X obj 34 359 ehu/splayer~;
#X obj 28 386 ehu/out~;
#X obj 34 307 ehu/abs_path;
#X obj 34 59 ehu/hit_sensor;
#X obj 30 -5 ehu/in~;
#X obj 34 171 bng 15 250 50 0 empty empty empty 17 7 0 10 -262144 -1
-1;
#X obj 34 193 ehu/loop_list;
#X obj 34 257 t b s;
#X floatatom 85 281 5 0 0 0 - - -;
#X obj 85 260 / 200;
#X text 250 138 list of sounds;
#X obj 57 338 f;
#X msg 34 280 bang;
#X symbolatom 58 223 20 0 0 0 - - -;
#X obj 193 135 loadbang;
#X text 173 42 loop sound files on sound hit;
#X text 175 57 detected;
#X msg 193 159 whistle.wav whistle2.wav;
#X text 164 193 this loops the list on bang;
#X connect 1 0 2 0;
#X connect 1 1 2 1;
#X connect 3 0 1 0;
#X connect 4 0 6 0;
#X connect 4 1 10 0;
#X connect 5 0 4 0;
#X connect 5 1 4 0;
#X connect 6 0 7 0;
#X connect 7 0 8 0;
#X connect 7 0 14 0;
#X connect 8 0 13 0;
#X connect 8 1 3 0;
#X connect 9 0 12 0;
#X connect 10 0 9 0;
#X connect 12 0 1 1;
#X connect 13 0 12 0;
#X connect 15 0 18 0;
#X connect 18 0 7 1;
