#N canvas 513 206 332 500 10;
#X declare -lib ggee;
#X obj 119 6 bng 30 250 50 0 empty empty empty 17 7 0 10 -250685 -1
-1;
#X obj 54 234 autoscale 0 100;
#X obj 9 1 gemkeyboard;
#X obj 9 20 select 32 65 27;
#X msg 234 78 fullscreen;
#X text 115 217 max value is movie length;
#X floatatom 54 257 5 0 0 0 - - -;
#X msg 25 57 set 10;
#X obj 168 102 ehu/gem/win 800 600;
#X obj 24 135 ehu/gem/track;
#X obj 24 78 ehu/gem/cam 60 45;
#X obj 18 395 ehu/gem/texture 400 300 800 600;
#X obj 168 54 t b b b b;
#X obj 18 298 ehu/gem/video whistle.mp4;
#X connect 0 0 12 0;
#X connect 1 0 6 0;
#X connect 2 0 3 0;
#X connect 3 0 0 0;
#X connect 3 1 0 0;
#X connect 3 2 0 0;
#X connect 4 0 8 1;
#X connect 6 0 13 5;
#X connect 7 0 10 0;
#X connect 9 1 1 0;
#X connect 10 0 9 0;
#X connect 12 1 7 0;
#X connect 12 2 8 0;
#X connect 12 3 4 0;
#X connect 13 0 11 0;
#X connect 13 1 1 2;
