#N canvas 333 319 680 424 10;
#X declare -lib ggee;
#X declare -lib ggee;
#X obj 31 9 bng 30 250 50 0 empty empty start_all 17 7 0 10 -258113
-1 -1;
#X obj 31 50 ehu/gem/win 640 480;
#X obj 31 317 ehu/gem/texture 320 240 640 480;
#X obj 31 74 ehu/dsp;
#X obj 286 324 ehu/out~;
#X obj 121 209 ehu/gem/video whistle.mp4 30;
#X text 251 16 Because the way PD GEM deals with video the sound chanel
of the videos do not get played we we play a video file. Both ehu/ehu/video
and ehu/gem/video2 expect to find a WAV sound file located next to
the video file we are importing. This file contains the exported sound
chanel of the video and it is named the same as the video but with
.WAV extension. For instance: whistle.mp4 and whistle.wav Please beware
that playing around with pitch might cause the sound to fail to sync
with the video.;
#X obj 326 195 ehu/gem/video2 whistle.mp4 30;
#X connect 0 0 1 0;
#X connect 0 0 3 0;
#X connect 0 0 5 1;
#X connect 5 0 2 0;
#X connect 5 6 4 0;
#X connect 5 7 4 1;
#X connect 7 0 2 0;
#X connect 7 6 4 0;
#X connect 7 7 4 1;
