#N canvas 161 181 564 327 10;
#X declare -lib flatspace;
#X msg 147 183 close;
#X msg 228 181 info;
#X msg 228 206 devices;
#X text 257 181 <- info for current connection;
#X msg 228 231 version;
#X text 281 231 <- get firmware version;
#X msg 102 183 open 15;
#X text 278 206 <- list devices;
#X floatatom 162 116 5 0 50 0 - - -;
#X obj 222 117 bng 15 250 50 0 empty empty info 17 7 0 10 -262144 -1
-1;
#X obj 234 24 inlet;
#X obj 274 24 inlet;
#X obj 195 25 inlet;
#X obj 25 3 import flatspace;
#X obj 16 47 arduino 1;
#X obj 152 64 print arduino;
#X obj 350 63 f \$1;
#X obj 323 23 loadbang;
#X obj 103 117 tgl 15 0 empty empty on/off 17 7 0 10 -262144 -1 -1
1 1;
#X obj 102 150 select 1;
#X msg 162 142 set open \$1;
#X text 195 117 COM;
#X obj 323 42 t b b;
#X msg 323 63 1;
#X obj 102 277 send EHU_arduino;
#X obj 41 232 s EHU_comport_closed;
#X obj 16 80 send EHU_arduino-out;
#X obj 16 24 receive EHU_arduino;
#X connect 0 0 24 0;
#X connect 0 0 25 0;
#X connect 1 0 2 0;
#X connect 1 0 24 0;
#X connect 2 0 4 0;
#X connect 2 0 24 0;
#X connect 4 0 24 0;
#X connect 6 0 24 0;
#X connect 6 0 25 0;
#X connect 8 0 20 0;
#X connect 9 0 1 0;
#X connect 10 0 8 0;
#X connect 11 0 9 0;
#X connect 12 0 18 0;
#X connect 14 0 26 0;
#X connect 14 1 15 0;
#X connect 16 0 8 0;
#X connect 17 0 22 0;
#X connect 18 0 19 0;
#X connect 19 0 6 0;
#X connect 19 1 0 0;
#X connect 20 0 6 0;
#X connect 22 0 23 0;
#X connect 22 1 16 0;
#X connect 23 0 18 0;
#X connect 27 0 14 0;
#X coords 0 -1 1 1 170 35 1 100 100;
