#N canvas 139 187 450 300 10;
#X declare -lib ggee;
#X obj 42 33 inlet;
#X obj 42 208 outlet;
#X obj 42 70 symbol;
#X obj 42 144 list;
#X obj 42 90 t b s;
#X obj 144 56 import ggee;
#X obj 42 116 ggee/getdir 2;
#X obj 42 167 makesymbol %s/%s;
#X text 169 98 returns an absolute path;
#X connect 0 0 2 0;
#X connect 2 0 4 0;
#X connect 3 0 7 0;
#X connect 4 0 6 0;
#X connect 4 1 3 1;
#X connect 6 0 3 0;
#X connect 7 0 1 0;
