#N canvas 1421 345 933 316 12;
#X obj 85 83 inlet;
#X obj 85 272 outlet;
#X msg 85 208 0;
#X obj 85 184 delay \$1;
#X msg 133 146 stop;
#X obj 130 83 inlet;
#X msg 176 146 1;
#X obj 176 179 spigot 1;
#X msg 229 155 1;
#X msg 261 155 0;
#X obj 85 146 f \$1;
#X obj 218 43 f \$1;
#X obj 218 21 loadbang;
#X obj 218 65 select 0;
#X msg 218 87 500;
#X obj 147 272 outlet;
#X text 200 275 bypass;
#X obj 85 106 t a b b b;
#X connect 0 0 15 0;
#X connect 0 0 17 0;
#X connect 2 0 1 0;
#X connect 3 0 2 0;
#X connect 3 0 8 0;
#X connect 4 0 3 0;
#X connect 5 0 10 1;
#X connect 6 0 7 0;
#X connect 7 0 1 0;
#X connect 8 0 7 1;
#X connect 9 0 7 1;
#X connect 10 0 3 0;
#X connect 11 0 13 0;
#X connect 12 0 11 0;
#X connect 13 0 14 0;
#X connect 14 0 10 1;
#X connect 17 0 10 0;
#X connect 17 1 4 0;
#X connect 17 2 9 0;
#X connect 17 3 6 0;
