#N canvas 2013 408 511 300 12;
#X obj 67 83 bng 15 250 50 0 empty empty empty 17 7 0 10 -262144 -1
-1;
#X obj 83 196 tgl 15 0 empty empty empty 17 7 0 10 -262144 -1 -1 0
1;
#X text 95 81 click several times fast;
#X text 34 13 takes an stream of bangs and converts them into on off
events. useful to convert makeymakey keypressed events into a single
key down and keyup;
#X obj 213 194 print;
#X floatatom 113 113 5 0 0 0 - - -;
#X text 156 113 click and drag;
#X obj 83 158 ehu/bangs2trig 1000;
#X connect 0 0 7 0;
#X connect 5 0 7 0;
#X connect 7 0 1 0;
#X connect 7 1 4 0;
