#N canvas 532 153 593 315 10;
#X obj 205 36 inlet;
#X obj 350 11 inlet;
#X obj 221 234 outlet~;
#X obj 274 235 outlet~;
#X msg 317 162 open \$1;
#X obj 317 112 symbol;
#X obj 350 89 symbol;
#X obj 205 91 select 0;
#X msg 205 116 0;
#X obj 250 116 t f b;
#X obj 335 236 outlet;
#X obj 250 200 readsf~ 2;
#X obj 317 138 path;
#X obj 350 62 openpanel;
#X obj 350 38 route bang;
#X connect 0 0 7 0;
#X connect 1 0 14 0;
#X connect 4 0 11 0;
#X connect 5 0 12 0;
#X connect 6 0 5 1;
#X connect 7 0 8 0;
#X connect 7 1 9 0;
#X connect 8 0 11 0;
#X connect 9 0 11 0;
#X connect 9 1 5 0;
#X connect 11 0 2 0;
#X connect 11 1 3 0;
#X connect 11 2 10 0;
#X connect 12 0 4 0;
#X connect 13 0 6 0;
#X connect 14 0 13 0;
#X connect 14 1 6 0;
#X coords 0 315 1 314 95 20 0;
