#N canvas 697 278 450 432 12;
#X obj 54 217 + 1;
#X obj 54 192 * -1;
#X obj 55 144 change;
#X obj 194 12 loadbang;
#X obj 54 265 line;
#X obj 319 44 \$1;
#X obj 319 67 select 0;
#X obj 54 241 pack f f;
#X obj 319 118 i;
#X obj 193 102 tgl 15 0 empty empty empty 17 7 0 10 -262144 -1 -1 1
1;
#X obj 54 293 spigot;
#X msg 319 91 100;
#X obj 55 115 env~;
#X obj 54 167 / 100;
#X obj 153 246 vsl 15 128 0 1 0 0 empty empty empty 0 -9 0 10 -262144
-1 -1 11344 1;
#X obj 174 246 vsl 15 128 0 1 0 0 empty empty empty 0 -9 0 10 -262144
-1 -1 1332 1;
#X obj 8 52 inlet~;
#X obj 9 319 *~ 1;
#X obj 10 348 outlet~;
#X msg 166 162 1;
#X obj 193 126 t b f;
#X connect 0 0 7 0;
#X connect 1 0 0 0;
#X connect 2 0 13 0;
#X connect 3 0 5 0;
#X connect 3 0 9 0;
#X connect 4 0 10 0;
#X connect 4 0 15 0;
#X connect 5 0 6 0;
#X connect 6 0 11 0;
#X connect 6 1 8 0;
#X connect 7 0 4 0;
#X connect 8 0 7 1;
#X connect 9 0 20 0;
#X connect 10 0 17 1;
#X connect 11 0 8 0;
#X connect 12 0 2 0;
#X connect 13 0 1 0;
#X connect 13 0 14 0;
#X connect 16 0 17 0;
#X connect 16 0 12 0;
#X connect 17 0 18 0;
#X connect 19 0 17 1;
#X connect 20 0 19 0;
#X connect 20 1 10 1;
#X coords 0 -1 1 1 110 20 1 100 100;
