#N canvas 410 285 450 300 10;
#X obj 79 132 t f b;
#X msg 125 150 1;
#X obj 208 129 array define \$0-arr;
#X obj 207 77 array set \$0-arr;
#X obj 79 180 array get \$0-arr;
#X obj 79 47 inlet;
#X obj 207 50 inlet;
#X obj 79 213 outlet;
#X connect 0 0 4 0;
#X connect 0 1 1 0;
#X connect 1 0 4 1;
#X connect 4 0 7 0;
#X connect 5 0 0 0;
#X connect 6 0 3 0;
