#N canvas 1752 274 450 331 12;
#X obj 68 51 key;
#X obj 68 85 select \$1;
#X obj 68 128 t b b;
#X msg 100 153 stop;
#X msg 68 209 1;
#X obj 68 238 change;
#X obj 69 302 outlet;
#X obj 154 41 keyup;
#X obj 154 83 select \$1;
#X obj 154 183 del 50;
#X msg 103 209 0;
#X obj 144 301 outlet;
#X obj 68 264 moses 1;
#X connect 0 0 1 0;
#X connect 1 0 2 0;
#X connect 2 0 4 0;
#X connect 2 1 3 0;
#X connect 3 0 9 0;
#X connect 4 0 5 0;
#X connect 5 0 12 0;
#X connect 7 0 8 0;
#X connect 8 0 9 0;
#X connect 9 0 10 0;
#X connect 10 0 5 0;
#X connect 12 0 11 0;
#X connect 12 1 6 0;
