#N canvas 307 306 463 428 10;
#X declare -lib ggee;
#X obj 143 249 list append;
#X obj 123 80 symbol;
#X obj 143 198 t b l;
#X obj 123 128 t b s b;
#X obj 123 280 list;
#X obj 143 225 list;
#X msg 198 208 bang;
#X text 233 206 clear before;
#X text 181 175 wait for all to be read;
#X obj 123 175 delay 5;
#X obj 123 100 makesymbol %s/*.*;
#X obj 142 152 hcs/folder_list;
#X obj 123 29 ehu/abs_path;
#X obj 123 341 outlet;
#X obj 123 3 inlet;
#X obj 123 52 t b s;
#X connect 0 0 4 1;
#X connect 0 0 5 1;
#X connect 1 0 10 0;
#X connect 2 0 5 0;
#X connect 2 1 0 1;
#X connect 3 0 9 0;
#X connect 3 1 11 0;
#X connect 3 2 6 0;
#X connect 4 0 13 0;
#X connect 5 0 0 0;
#X connect 6 0 5 1;
#X connect 9 0 4 0;
#X connect 10 0 3 0;
#X connect 11 0 2 0;
#X connect 12 0 15 0;
#X connect 14 0 12 0;
#X connect 15 0 1 0;
#X connect 15 1 1 1;
