#N canvas 360 189 529 499 10;
#X floatatom 124 204 5 0 0 0 - - -, f 5;
#X obj 103 205 tgl 15 0 empty empty empty 0 -6 0 8 -258113 -1 -1 1
1;
#N canvas 0 50 452 302 (subpatch) 0;
#X array \$0-fold 132 float 0;
#X coords 0 1 131 -1 130 100 2 0 0;
#X restore 100 103 graph;
#X obj 36 35 inlet~;
#X obj 103 32 inlet;
#X obj 147 33 inlet;
#X obj 26 134 loadbang;
#X obj 389 99 \$1;
#X obj 424 117 \$2;
#X obj 458 121 \$3;
#X text 384 80 sample lenght;
#X text 422 101 width;
#X text 460 103 lenght;
#X obj 72 352 metro 500;
#X obj 389 199 t b f;
#X msg 389 218 1000;
#X text 420 238 <fpstomsc;
#X obj 389 238 / 10;
#X text 422 179 default fps;
#X text 155 204 fps;
#X obj 389 178 f 10;
#X msg 19 163 10;
#X obj 387 280 * 441;
#X msg 387 299 resize \$1;
#X obj 185 208 hsl 40 11 0.1 3 0 0 empty empty empty -2 -8 0 10 -4032
-1 -1 269 1;
#X text 200 204 zoom;
#X msg 43 432 1;
#X obj 192 36 inlet;
#X msg 122 466 0.3;
#X obj 387 319 s \$0-fold;
#X obj 72 377 tabwrite~ \$0-fold;
#X connect 0 0 20 0;
#X connect 1 0 13 0;
#X connect 3 0 30 0;
#X connect 4 0 1 0;
#X connect 5 0 0 0;
#X connect 6 0 1 0;
#X connect 6 0 21 0;
#X connect 6 0 26 0;
#X connect 6 0 28 0;
#X connect 13 0 30 0;
#X connect 14 0 15 0;
#X connect 14 1 17 1;
#X connect 15 0 17 0;
#X connect 17 0 13 1;
#X connect 20 0 14 0;
#X connect 21 0 0 0;
#X connect 22 0 23 0;
#X connect 23 0 29 0;
#X connect 24 0 22 0;
#X connect 26 0 22 0;
#X connect 26 0 1 0;
#X connect 27 0 24 0;
#X connect 28 0 24 0;
#X coords 0 -1 1 1 130 122 1 100 100;
