#N canvas 2 50 512 491 10;
#X obj 720 23 thispath;
#X floatatom 275 367 5 0 0 0 - - -, f 5;
#X obj 278 410 hsl 128 15 0 127 0 0 empty empty empty -2 -8 0 10 -262144
-1 -1 0 1;
#X obj 194 322 select;
#X obj 194 357 bng 15 250 50 0 empty empty empty 17 7 0 10 -262144
-1 -1;
#X obj 273 193 random;
#X msg 194 263 \$1 \$2;
#X floatatom 273 225 5 0 0 0 - - -, f 5;
#X obj 194 291 line;
#X obj 194 238 pack i i;
#X obj 212 161 t b i;
#X obj 68 194 random;
#X msg 116 90 100;
#X floatatom 68 256 5 0 0 0 - - -, f 5;
#X obj 249 321 bng 15 250 50 0 empty empty empty 17 7 0 10 -262144
-1 -1;
#X msg 348 98 1000;
#X text 137 63 max value;
#X text 397 99 max time;
#X obj 101 139 \$1;
#X obj 101 58 inlet;
#X obj 68 58 inlet;
#X obj 306 69 inlet;
#X obj 306 142 \$2;
#X obj 227 418 outlet;
#X connect 1 0 2 0;
#X connect 3 0 4 0;
#X connect 3 0 5 0;
#X connect 3 1 1 0;
#X connect 3 1 23 0;
#X connect 5 0 7 0;
#X connect 5 0 10 0;
#X connect 6 0 8 0;
#X connect 8 0 3 0;
#X connect 9 0 6 0;
#X connect 10 0 11 0;
#X connect 10 1 9 1;
#X connect 11 0 13 0;
#X connect 11 0 3 1;
#X connect 11 0 9 0;
#X connect 12 0 18 0;
#X connect 14 0 11 0;
#X connect 15 0 22 0;
#X connect 18 0 11 1;
#X connect 19 0 18 0;
#X connect 20 0 11 0;
#X connect 21 0 22 0;
#X connect 22 0 5 1;
