#N canvas 204 241 450 300 12;
#X obj 66 80 tgl 15 0 empty empty empty 17 7 0 10 -262144 -1 -1 1 1
;
#X obj 66 132 bng 15 250 50 0 empty empty empty 17 7 0 10 -262144 -1
-1;
#X text 164 55 min;
#X floatatom 124 57 5 0 0 0 - - -;
#X floatatom 182 77 5 0 0 0 - - -;
#X text 222 75 max;
#X obj 66 103 randmetro 100 500;
#X connect 0 0 6 0;
#X connect 3 0 6 1;
#X connect 4 0 6 2;
#X connect 6 0 1 0;
