#N canvas 214 147 543 405 10;
#X obj 67 17 inlet;
#X msg 100 108 seed \$1;
#X obj 100 67 realtime;
#X obj 136 39 loadbang;
#X obj 100 88 int;
#X obj 147 17 bng 15 250 50 0 empty empty empty 17 7 0 10 -262144 -1
-1;
#X obj 67 172 random 1;
#X obj 288 24 inlet;
#X text 282 4 path to dir;
#X obj 271 281 list append;
#X obj 251 338 list length;
#X floatatom 67 193 5 0 0 0 - - -, f 5;
#X obj 251 112 symbol;
#X obj 271 230 t b l;
#X obj 251 160 t b s b;
#X obj 251 312 list;
#X obj 271 257 list;
#X msg 326 240 bang;
#X obj 67 265 list split;
#X obj 67 238 list;
#X obj 95 305 list split 1;
#X obj 95 354 outlet;
#X obj 106 329 print EHU_CHOOSEN;
#X text 68 -2 bang;
#X text 361 238 clear before;
#X text 309 207 wait for all to be read;
#X obj 251 207 delay 5;
#X text 304 53 Chooses a random file from a given dir;
#X obj 160 63 symbol \$1;
#X obj 270 184 hcs/folder_list;
#X obj 288 92 ehu/abs_path;
#X obj 251 373 outlet;
#X obj 67 213 t b f b;
#X text 13 308 get the 1st;
#X text 13 281 in the 2nd group;
#X obj 251 138 makefilename %s/*.*;
#X connect 0 0 6 0;
#X connect 1 0 6 0;
#X connect 2 0 4 0;
#X connect 3 0 2 0;
#X connect 3 0 28 0;
#X connect 4 0 1 0;
#X connect 6 0 11 0;
#X connect 7 0 30 0;
#X connect 9 0 15 1;
#X connect 9 0 16 1;
#X connect 10 0 31 0;
#X connect 10 0 6 1;
#X connect 11 0 32 0;
#X connect 12 0 35 0;
#X connect 13 0 16 0;
#X connect 13 1 9 1;
#X connect 14 0 26 0;
#X connect 14 1 29 0;
#X connect 14 2 17 0;
#X connect 15 0 10 0;
#X connect 15 0 19 1;
#X connect 16 0 9 0;
#X connect 17 0 16 1;
#X connect 18 1 20 0;
#X connect 19 0 18 0;
#X connect 20 0 21 0;
#X connect 20 0 22 0;
#X connect 26 0 15 0;
#X connect 28 0 30 0;
#X connect 29 0 13 0;
#X connect 30 0 12 1;
#X connect 32 0 19 0;
#X connect 32 1 18 1;
#X connect 32 2 12 0;
#X connect 35 0 14 0;
