#N canvas 2 50 450 300 10;
#X obj 66 62 inlet~;
#X obj 65 243 outlet~;
#X obj 194 7 inlet;
#X obj 238 190 random 5000;
#X obj 238 172 bng 15 250 50 0 empty empty empty 17 7 0 10 -262144
-1 -1;
#X obj 238 226 + 0;
#X obj 194 112 unpack f f;
#X obj 65 136 delwrite~ del\$0 \$1;
#X obj 66 165 delread~ del\$0 \$2;
#X obj 238 253 outlet;
#X obj 194 86 t b l;
#X obj 194 39 route list bang;
#X connect 0 0 7 0;
#X connect 2 0 11 0;
#X connect 3 0 5 0;
#X connect 4 0 3 0;
#X connect 5 0 8 0;
#X connect 5 0 9 0;
#X connect 6 0 5 1;
#X connect 6 1 3 1;
#X connect 8 0 1 0;
#X connect 10 0 4 0;
#X connect 10 1 6 0;
#X connect 11 0 10 0;
#X connect 11 1 4 0;
#X connect 11 2 9 0;
#X connect 11 2 8 0;
