#N canvas 314 107 575 446 10;
#X declare -lib ggee;
#X msg 102 336 stop;
#X obj 102 315 select 0;
#X obj 250 396 namecanvas \$0-bla;
#X obj 249 374 s \$0-bla;
#X obj 249 329 r EHU_gop;
#X text 319 326 w h of canvas / x y of red window;
#X msg 147 336 start;
#X obj 302 53 symbol \$1;
#X obj 368 56 f \$2;
#X obj 361 7 loadbang;
#X obj 96 16 inlet;
#X obj 135 16 inlet;
#X obj 173 16 inlet;
#X obj 126 217 symbol;
#X obj 178 217 f;
#X obj 425 56 f \$3;
#X obj 126 72 t s b b;
#X obj 220 18 inlet;
#X obj 214 217 f;
#X obj 126 242 pack s f f;
#X msg 126 266 open -bytes \$2 -rate \$3 \$1;
#X obj 425 77 select 0;
#X obj 368 77 select 0;
#X msg 425 140 44100;
#X msg 368 121 2;
#X obj 102 117 tgl 15 0 empty empty empty 17 7 0 10 -258113 -1 -1 0
1;
#X obj 6 16 inlet~;
#X obj 102 367 writesf~ 2;
#X obj 48 16 inlet~;
#X text 91 -1 on/off;
#X text 140 0 file;
#X text 172 -3 bytes;
#X text 221 -2 rate;
#X obj 174 165 t b a b;
#X obj 228 167 t b b a;
#N canvas 321 370 450 300 makepath 0;
#X obj 153 22 inlet;
#X obj 153 175 outlet;
#X obj 32 23 inlet;
#X obj 32 178 outlet;
#X obj 32 60 symbol;
#X obj 32 134 list;
#X obj 32 80 t b s;
#X obj 32 157 makesymbol %s/%s;
#X obj 299 136 import ggee;
#X obj 32 106 ggee/getdir 2;
#X obj 153 97 ggee/getdir 2;
#X connect 0 0 10 0;
#X connect 2 0 4 0;
#X connect 4 0 6 0;
#X connect 5 0 7 0;
#X connect 6 0 9 0;
#X connect 6 1 5 1;
#X connect 7 0 3 0;
#X connect 9 0 5 0;
#X connect 10 0 1 0;
#X restore 126 144 pd makepath;
#X obj 194 297 print;
#X obj 302 72 select 0;
#X msg 302 96 snd.wav;
#X obj 416 220 bng 15 250 50 0 empty empty empty 17 7 0 10 -262144
-1 -1;
#X obj 416 305 print;
#X obj 416 263 pack f f f;
#X obj 416 284 makesymbol %f%f%f;
#X obj 416 240 time;
#X obj 452 12 samplerate~;
#X obj 359 27 t b b b b;
#X msg 448 116 set \$1;
#X msg 249 350 donecanvasdialog 1 -1 \$1 0 -1 1 1 85 35 100 100;
#X obj 46 409 print recording;
#X obj 173 36 / 8;
#X obj 173 55 - 1;
#X text 199 55 1 \, 2 \, 3;
#X connect 0 0 27 0;
#X connect 0 0 48 0;
#X connect 1 0 0 0;
#X connect 1 1 6 0;
#X connect 4 0 47 0;
#X connect 6 0 27 0;
#X connect 6 0 48 0;
#X connect 7 0 37 0;
#X connect 8 0 22 0;
#X connect 9 0 45 0;
#X connect 10 0 25 0;
#X connect 11 0 16 0;
#X connect 12 0 49 0;
#X connect 13 0 19 0;
#X connect 14 0 19 1;
#X connect 15 0 21 0;
#X connect 16 0 35 0;
#X connect 16 1 14 0;
#X connect 16 2 18 0;
#X connect 17 0 34 0;
#X connect 18 0 19 2;
#X connect 19 0 20 0;
#X connect 20 0 27 0;
#X connect 20 0 36 0;
#X connect 21 0 23 0;
#X connect 21 1 18 0;
#X connect 22 0 24 0;
#X connect 22 1 14 0;
#X connect 23 0 18 0;
#X connect 24 0 14 0;
#X connect 25 0 1 0;
#X connect 26 0 27 0;
#X connect 28 0 27 1;
#X connect 33 0 13 0;
#X connect 33 1 14 0;
#X connect 33 2 18 0;
#X connect 34 0 13 0;
#X connect 34 1 14 0;
#X connect 34 2 18 0;
#X connect 35 0 13 0;
#X connect 37 0 38 0;
#X connect 37 1 16 0;
#X connect 38 0 35 0;
#X connect 39 0 43 0;
#X connect 41 0 42 0;
#X connect 42 0 40 0;
#X connect 43 0 41 0;
#X connect 43 1 41 1;
#X connect 43 2 41 2;
#X connect 44 0 46 0;
#X connect 45 0 7 0;
#X connect 45 1 8 0;
#X connect 45 2 15 0;
#X connect 45 3 44 0;
#X connect 46 0 23 0;
#X connect 47 0 3 0;
#X connect 49 0 50 0;
#X connect 50 0 33 0;
#X coords 0 -1 1 1 85 35 1 100 100;
