#N canvas 385 293 600 304 10;
#X obj 103 101 hsl 128 15 0 36 0 0 empty \$0-sld empty -2 8 0 8 -262130
-260097 -1 4400 1;
#X floatatom 196 102 5 0 0 0 - - -, f 5;
#X obj 100 68 inlet;
#X obj 100 150 outlet;
#X obj 235 101 tgl 15 0 empty empty empty 17 7 0 10 -262144 -260097
-1 1 1;
#X obj 173 187 \$1;
#X obj 381 86 loadbang;
#X obj 244 123 select 0;
#X msg 244 144 0;
#X obj 296 151 bng 15 250 50 0 empty empty empty 17 7 0 10 -262144
-1 -1;
#X obj 414 154 \$1;
#X obj 381 232 print;
#X obj 28 202 bng 15 250 50 0 empty empty empty 17 7 0 10 -262144 -1
-1;
#X obj 28 222 \$0;
#X floatatom 28 244 5 0 0 0 - - -, f 5;
#X obj 381 154 \$0;
#X obj 381 110 delay 10;
#X obj 448 154 \$2;
#X obj 381 132 t b b b;
#X obj 381 176 pack f f f;
#X msg 381 198 \; \$1-sld range \$2 \$3;
#X text 480 157 max min;
#X connect 0 0 1 0;
#X connect 0 0 3 0;
#X connect 2 0 0 0;
#X connect 4 0 0 0;
#X connect 4 0 7 0;
#X connect 5 0 0 0;
#X connect 6 0 16 0;
#X connect 7 0 8 0;
#X connect 7 1 9 0;
#X connect 8 0 0 0;
#X connect 9 0 5 0;
#X connect 10 0 19 1;
#X connect 12 0 13 0;
#X connect 13 0 14 0;
#X connect 15 0 19 0;
#X connect 16 0 18 0;
#X connect 17 0 19 2;
#X connect 18 0 15 0;
#X connect 18 1 10 0;
#X connect 18 2 17 0;
#X connect 19 0 20 0;
#X connect 20 0 11 0;
#X coords 0 -1 1 1 150 15 1 100 100;
