#N canvas 1475 269 532 511 10;
#X obj 100 -175 inlet;
#X text 110 -199 play/pause;
#X obj 122 17 soundfiler;
#X obj 110 214 *~ 44100;
#X obj 109 130 phasor~ 1;
#X obj 169 197 - 2;
#X obj 109 106 / 1;
#X obj 140 91 / 44100;
#X text 137 75 secs;
#X obj 122 46 t b f f;
#X msg 202 90 0;
#X msg 54 107 0;
#X obj 1 4 select 1;
#X obj 362 239 snapshot~;
#X obj 111 266 outlet~;
#X obj 226 267 outlet~;
#X obj 395 -135 loadbang;
#X msg 370 -100 1;
#X obj 364 -11 table \$0snd;
#X obj 142 -45 symbol \$0snd;
#X text 213 74 reset phasor;
#X obj 405 -97 samplerate~;
#X obj 364 10 table \$0sndR;
#X obj 248 -44 symbol \$0sndR;
#X msg 122 -2 read -resize \$1 \$2 \$3;
#X obj 227 241 tabread4~ \$0sndR;
#X obj 111 241 tabread4~ \$0snd;
#X obj 192 -175 inlet;
#X text 187 -195 path;
#X obj 266 -174 inlet;
#X text 263 -193 loop;
#X obj 266 -152 s \$0loop;
#X obj 362 217 metro 50;
#X obj 222 147 bonk~;
#X obj 254 174 spigot 1;
#X obj 299 132 - 1;
#X obj 299 152 abs;
#X obj 362 263 outlet;
#X obj 299 106 r \$0loop;
#X obj 478 260 outlet;
#X text 488 289 loop;
#X text 320 131 reverse;
#X obj 335 -171 inlet;
#X text 335 -188 reset;
#X obj 54 31 select 0;
#X text 331 281 current position;
#X obj 1 131 t b b;
#X obj 1 195 f;
#X msg 28 196 1;
#X obj 1 153 delay 20;
#X msg 1 -36 0;
#X msg 33 -36 1;
#X obj 1 -64 t b b;
#X obj 1 221 s \$0fixloop;
#X obj 367 106 r \$0fixloop;
#X obj 16 175 r \$0loop;
#X obj 122 -21 pack s s s;
#X obj 322 53 print;
#X obj 122 -74 t a b b b;
#X obj 362 162 select 0;
#X msg 362 182 0;
#X msg 407 182 1;
#X obj 9 -166 delay 1000;
#X obj 9 -187 loadbang;
#X obj 9 -147 symbol \$1;
#X obj 9 -125 ehu/abs_path;
#X obj 213 122 print F_END;
#X obj 192 -113 path;
#X obj 192 -138 symbol;
#X connect 0 0 12 0;
#X connect 0 0 59 0;
#X connect 2 0 9 0;
#X connect 3 0 26 0;
#X connect 3 0 25 0;
#X connect 4 0 13 0;
#X connect 4 0 3 0;
#X connect 4 0 33 0;
#X connect 5 0 3 1;
#X connect 6 0 4 0;
#X connect 7 0 6 1;
#X connect 9 0 10 0;
#X connect 9 0 6 0;
#X connect 9 0 11 0;
#X connect 9 1 7 0;
#X connect 9 2 5 0;
#X connect 10 0 4 1;
#X connect 11 0 4 0;
#X connect 12 0 46 0;
#X connect 12 1 44 0;
#X connect 13 0 37 0;
#X connect 16 0 21 0;
#X connect 16 0 17 0;
#X connect 17 0 31 0;
#X connect 17 0 6 0;
#X connect 19 0 56 1;
#X connect 21 0 7 1;
#X connect 23 0 56 2;
#X connect 24 0 2 0;
#X connect 24 0 57 0;
#X connect 25 0 15 0;
#X connect 26 0 14 0;
#X connect 27 0 68 0;
#X connect 29 0 31 0;
#X connect 32 0 13 0;
#X connect 33 1 34 0;
#X connect 33 1 66 0;
#X connect 34 0 11 0;
#X connect 34 0 39 0;
#X connect 35 0 36 0;
#X connect 36 0 34 1;
#X connect 38 0 35 0;
#X connect 42 0 10 0;
#X connect 42 0 17 0;
#X connect 42 0 52 0;
#X connect 44 0 11 0;
#X connect 44 1 6 0;
#X connect 46 0 49 0;
#X connect 46 1 48 0;
#X connect 46 1 6 0;
#X connect 47 0 53 0;
#X connect 48 0 53 0;
#X connect 49 0 47 0;
#X connect 50 0 12 0;
#X connect 51 0 6 0;
#X connect 52 0 50 0;
#X connect 52 1 51 0;
#X connect 54 0 35 0;
#X connect 55 0 47 1;
#X connect 56 0 24 0;
#X connect 58 0 56 0;
#X connect 58 1 19 0;
#X connect 58 2 23 0;
#X connect 59 0 60 0;
#X connect 59 1 61 0;
#X connect 60 0 32 0;
#X connect 61 0 32 0;
#X connect 62 0 64 0;
#X connect 63 0 62 0;
#X connect 64 0 65 0;
#X connect 65 0 58 0;
#X connect 67 0 58 0;
#X connect 68 0 67 0;
#X coords 0 511 1 510 139 45 0;
