#N canvas 93 92 894 583 10;
#X obj -128 366 cnv 15 100 60 empty empty empty 20 12 0 14 -233017
-66577 0;
#X msg -89 147 open \$1;
#X obj 1 -130 inlet;
#X obj -54 -130 inlet;
#X obj -55 306 s \$0l;
#X obj 95 381 outlet;
#X obj -67 383 outlet;
#X obj 188 383 outlet;
#X text -88 109 movie name;
#X obj 202 -30 r \$0l;
#X obj -122 382 outlet;
#X obj -109 -130 inlet;
#X obj 24 84 s \$0play;
#X obj 344 160 r \$0play;
#X obj 5 108 s \$0loop;
#X text 10 -148 import;
#X obj 188 306 r \$0loop;
#X msg 449 211 1;
#X text -37 171 < current frame to play;
#X text -119 344 < send data;
#X obj -28 149 gemhead;
#X obj 503 117 spigot 0;
#X obj 449 190 spigot 0;
#X obj 494 171 r \$0play;
#X obj 3 16 cnv 15 210 28 empty empty empty 20 12 0 14 -233017 -66577
0;
#X obj 3 29 tgl 15 0 empty empty on 0 -6 0 7 -262144 -1 -1 1 1;
#X obj 20 29 tgl 15 0 empty empty play -2 -6 0 7 -262144 -1 -1 0 1
;
#X obj 37 29 tgl 15 0 empty empty loop 0 -6 0 7 -262144 -1 -1 1 1;
#X floatatom 193 28 3 0 0 2 fps - -, f 3;
#X obj 417 405 outlet~;
#X obj -89 182 pix_film;
#X obj 96 -96 loadbang;
#X obj 1 -82 symbol \$1;
#X obj 54 29 bng 15 250 50 0 empty empty open 0 -6 0 8 -262144 -1 -1
;
#X msg 351 27 set \$1;
#X obj 369 -103 loadbang;
#X obj 384 -77 r globalobjects;
#X obj 369 -16 s globalobjects;
#X obj 369 -36 + 1;
#X obj 369 -57 f 1;
#X text 396 -62 render order;
#X text 98 364 current frame;
#X text 195 347 bang on last frame;
#X text 525 405 audio;
#X obj 548 97 r \$0play;
#X obj 490 52 namecanvas \$0-bla;
#X obj 489 30 s \$0-bla;
#X obj 489 -15 r EHU_gop;
#X text 496 -33 GOP;
#X msg 489 6 donecanvasdialog 1 -1 \$1 0 -1 1 1 265 85 1 1;
#X text -69 362 length \, width \, height;
#X obj -67 257 unpack f f f;
#X obj -24 382 outlet;
#X obj 20 382 outlet;
#X text -60 -147 play/pause;
#X obj 232 148 s \$0snd;
#X obj -77 121 r \$0snd;
#N canvas 115 334 450 353 frame_counter 0;
#X obj 63 11 inlet;
#X obj 144 10 inlet;
#X obj 189 13 inlet;
#X obj 235 11 inlet;
#X obj 56 299 outlet;
#X obj 157 304 outlet;
#X obj 309 295 outlet;
#N canvas 664 334 271 298 fps_counter 0;
#X obj 89 48 t b f;
#X msg 89 67 1000;
#X text 120 87 <fpstomsc;
#X obj 38 174 metro 100;
#X obj 89 87 / 10;
#X text 52 158 <fps;
#X text 122 28 default fps;
#X obj 38 -9 inlet;
#X obj 38 215 outlet;
#X obj 116 216 outlet;
#X obj 116 135 moses 0;
#X msg 155 158 up;
#X msg 116 158 down;
#X obj 89 -9 inlet;
#X obj 89 110 t f f;
#X obj 89 135 abs;
#X text 2 134 only positive;
#X obj 89 27 f 25;
#X connect 0 0 1 0;
#X connect 0 1 4 1;
#X connect 1 0 4 0;
#X connect 3 0 8 0;
#X connect 4 0 14 0;
#X connect 7 0 3 0;
#X connect 10 0 12 0;
#X connect 10 1 11 0;
#X connect 11 0 9 0;
#X connect 12 0 9 0;
#X connect 13 0 17 0;
#X connect 14 0 15 0;
#X connect 14 1 10 0;
#X connect 15 0 3 1;
#X connect 17 0 0 0;
#X restore 63 56 pd fps_counter;
#X msg 166 57 min \$1;
#X msg 213 57 max \$1;
#X obj 157 210 bng 15 200 100 0 empty empty empty 17 7 0 10 -262144
-1 -1;
#X msg 261 57 jam \$1;
#X obj 289 11 inlet;
#X obj 349 17 inlet;
#X msg 157 281 0;
#X obj 157 258 select 0;
#X text 184 240 if not looped stop;
#X obj 157 239 f 1;
#X obj 157 190 spigot;
#X obj 190 171 tgl 15 0 empty empty empty 17 7 0 10 -262144 -1 -1 0
1;
#X obj 157 150 t b b;
#X obj 144 95 cyclone/counter;
#X connect 0 0 7 0;
#X connect 1 0 7 1;
#X connect 2 0 8 0;
#X connect 3 0 9 0;
#X connect 7 0 21 0;
#X connect 7 1 21 0;
#X connect 8 0 21 0;
#X connect 9 0 21 0;
#X connect 10 0 6 0;
#X connect 10 0 17 0;
#X connect 11 0 21 0;
#X connect 12 0 11 0;
#X connect 13 0 17 1;
#X connect 14 0 5 0;
#X connect 15 0 14 0;
#X connect 17 0 15 0;
#X connect 18 0 10 0;
#X connect 19 0 18 1;
#X connect 20 0 18 0;
#X connect 20 1 19 0;
#X connect 21 0 4 0;
#X connect 21 1 20 0;
#X connect 21 2 20 0;
#X restore 95 329 pd frame_counter;
#X text -112 -145 on/off;
#X obj 113 30 nbx 4 14 0 1e+06 0 0 empty empty end 0 -8 0 8 -228856
-1 -1 0 256;
#X obj 153 30 nbx 4 14 0 100000 0 0 empty empty go_to 0 -8 0 8 -228856
-1 -1 0 256;
#X obj 95 287 r \$0play;
#X obj 232 107 openpanel;
#X obj 232 127 symbol \$1;
#N canvas 350 246 442 325 findwav 1;
#X obj 21 30 inlet;
#X obj 21 215 outlet;
#X obj 21 107 unpack s s;
#X msg 21 133 \$1 wav;
#X obj 21 154 pack s s;
#X text 165 28 gets something like;
#X text 162 41 /home/r2d2/myvideo.avi;
#X text 166 54 and spits;
#X text 162 68 /home/r2d2/myvideo.wav;
#X obj 21 82 symbol2list .;
#X obj 21 175 list2symbol .;
#X obj 32 55 symbol;
#X connect 0 0 11 0;
#X connect 2 0 3 0;
#X connect 3 0 4 0;
#X connect 4 0 10 0;
#X connect 9 0 2 0;
#X connect 10 0 1 0;
#X connect 11 0 9 0;
#X restore 415 154 pd findwav;
#X obj 73 30 nbx 4 14 0 1e+37 0 0 empty empty start 2 -8 0 8 -228856
-1 -1 0 256;
#X msg 202 -4 0;
#X obj 21 -106 delay 2200;
#X text -17 306 length in frames;
#N canvas 448 162 450 300 dealwith 0;
#X msg -44 51 quality \$1;
#X msg -4 76 mode \$1;
#X msg 201 85 1;
#X msg 49 52 set \$1;
#X obj -44 -26 inlet;
#X obj 201 62 loadbang;
#X obj -29 143 outlet;
#X obj 49 142 outlet;
#X obj 109 135 outlet;
#X obj -44 24 route quality mode index set;
#X connect 0 0 6 0;
#X connect 1 0 6 0;
#X connect 2 0 1 0;
#X connect 2 0 8 0;
#X connect 3 0 7 0;
#X connect 4 0 9 0;
#X connect 5 0 2 0;
#X connect 9 0 0 0;
#X connect 9 1 1 0;
#X connect 9 2 3 0;
#X connect 9 3 3 0;
#X connect 9 4 8 0;
#X restore -109 -58 pd dealwith;
#X obj 469 407 outlet~;
#X obj 416 344 ehu/splayer~;
#X text 289 -7 default fps;
#X obj 504 136 /;
#X text 461 258 loop;
#X obj 416 306 f;
#X obj 461 276 t b b;
#X text 297 -57 fps;
#X obj 264 -33 select 0;
#X msg 264 -8 30;
#X obj 264 -53 \$2;
#X obj -67 231 \$3;
#X obj -67 208 select 0;
#X text -38 233 length in frames as arg;
#X obj 573 215 print AUDIO;
#X obj 262 -131 inlet;
#X obj 1 -39 path;
#X connect 1 0 30 0;
#X connect 2 0 1 0;
#X connect 2 0 64 0;
#X connect 3 0 26 0;
#X connect 9 0 59 0;
#X connect 9 0 66 0;
#X connect 11 0 69 0;
#X connect 13 0 75 0;
#X connect 16 0 57 5;
#X connect 17 0 75 0;
#X connect 20 0 30 0;
#X connect 21 0 73 0;
#X connect 22 0 17 0;
#X connect 23 0 22 1;
#X connect 25 0 20 0;
#X connect 26 0 12 0;
#X connect 27 0 14 0;
#X connect 28 0 21 0;
#X connect 28 0 57 1;
#X connect 30 0 10 0;
#X connect 30 1 82 0;
#X connect 31 0 27 0;
#X connect 31 0 67 0;
#X connect 31 0 80 0;
#X connect 32 0 86 0;
#X connect 33 0 62 0;
#X connect 34 0 20 0;
#X connect 35 0 39 0;
#X connect 36 0 39 1;
#X connect 38 0 37 0;
#X connect 39 0 38 0;
#X connect 39 0 34 0;
#X connect 44 0 21 1;
#X connect 47 0 49 0;
#X connect 49 0 46 0;
#X connect 51 0 6 0;
#X connect 51 0 4 0;
#X connect 51 1 52 0;
#X connect 51 2 53 0;
#X connect 56 0 1 0;
#X connect 57 0 30 1;
#X connect 57 0 5 0;
#X connect 57 1 26 0;
#X connect 57 2 7 0;
#X connect 57 2 76 0;
#X connect 59 0 57 3;
#X connect 60 0 57 4;
#X connect 61 0 57 0;
#X connect 62 0 63 0;
#X connect 63 0 55 0;
#X connect 63 0 64 0;
#X connect 64 0 22 0;
#X connect 64 0 71 1;
#X connect 64 0 84 0;
#X connect 65 0 57 2;
#X connect 66 0 65 0;
#X connect 67 0 32 0;
#X connect 69 1 20 0;
#X connect 69 2 25 0;
#X connect 71 0 29 0;
#X connect 71 1 70 0;
#X connect 73 0 75 0;
#X connect 75 0 71 0;
#X connect 76 0 75 0;
#X connect 76 1 71 3;
#X connect 78 0 79 0;
#X connect 78 1 73 1;
#X connect 78 1 28 0;
#X connect 79 0 73 1;
#X connect 79 0 28 0;
#X connect 80 0 78 0;
#X connect 81 0 51 0;
#X connect 82 0 81 0;
#X connect 82 1 51 0;
#X connect 85 0 80 0;
#X connect 86 0 1 0;
#X connect 86 0 64 0;
#X coords 0 583 1 582 214 47 0;
