#N canvas 834 278 412 429 10;
#X obj 47 38 inlet;
#X obj 24 357 outlet;
#X obj 24 297 gemhead;
#X obj 305 200 bng 15 250 50 0 empty empty empty 17 7 0 10 -262144
-1 -1;
#X obj 188 124 metro 50;
#X obj 188 178 cyclone/counter 1200;
#X text 325 201 loop;
#X text 26 273 delay;
#X obj 309 359 outlet;
#X text 294 382 current frame;
#X obj 188 19 loadbang;
#X text 53 15 video signal;
#X msg 145 87 max \$1;
#X msg 25 124 resize \$1;
#X obj 145 60 \$1;
#X obj 155 363 outlet;
#X text 20 383 delayed signal;
#X text 155 387 clean signal;
#X obj 233 103 /;
#X msg 233 83 1000;
#X obj 233 43 \$2;
#X obj 233 63 t b f;
#X obj 25 149 pix_buffer \$0depot 1200;
#X obj 47 233 pix_buffer_write \$0depot;
#X obj 24 318 pix_buffer_read \$0depot;
#X obj 64 178 print del_length;
#X obj 159 260 + 1;
#X obj 159 280 moses;
#X msg 186 300 1;
#X text 197 279 delay reads always one in advance;
#X obj 188 206 t f f;
#X connect 0 0 23 0;
#X connect 2 0 24 0;
#X connect 3 0 5 3;
#X connect 4 0 5 0;
#X connect 5 0 8 0;
#X connect 5 0 30 0;
#X connect 5 3 3 0;
#X connect 10 0 4 0;
#X connect 10 0 14 0;
#X connect 10 0 20 0;
#X connect 12 0 5 0;
#X connect 13 0 22 0;
#X connect 13 0 25 0;
#X connect 14 0 13 0;
#X connect 14 0 12 0;
#X connect 14 0 27 1;
#X connect 18 0 4 1;
#X connect 19 0 18 0;
#X connect 20 0 21 0;
#X connect 21 0 19 0;
#X connect 21 1 18 1;
#X connect 23 0 15 0;
#X connect 24 0 1 0;
#X connect 26 0 27 0;
#X connect 27 0 24 1;
#X connect 27 1 28 0;
#X connect 28 0 24 1;
#X connect 30 0 23 1;
#X connect 30 1 26 0;
