#N canvas 591 115 393 277 10;
#X declare -lib ggee;
#X declare -lib ggee;
#X obj 26 21 ehu/gem/win 400 300;
#X obj 211 60 ehu/abs_path;
#X msg 233 27 picts/imagen1_320x240.jpg;
#X obj 53 158 ehu/gem/texture 150 150 250 200;
#X obj 52 90 ehu/gem/picture picts/imagen1.jpg;
#X msg 211 3 picts/alpha.tif;
#X connect 1 0 4 1;
#X connect 2 0 1 0;
#X connect 4 0 3 0;
#X connect 5 0 1 0;
