#N canvas 593 118 393 277 10;
#X declare -lib ggee;
#X obj 26 21 ehu/gem/win 400 300;
#X obj 52 157 ehu/gem/texture 100 100 200 200;
#X obj 211 60 ehu/abs_path;
#X msg 196 -4 picts/imagen1.jpg;
#X msg 233 27 picts/imagen1_320x240.jpg;
#X obj 52 90 ehu/gem/picture picts/imagen1.jpg;
#X connect 2 0 5 1;
#X connect 3 0 2 0;
#X connect 4 0 2 0;
#X connect 5 0 1 0;
