#N canvas 579 124 618 505 10;
#X obj 348 29 bng 30 250 50 0 empty empty click_me 0 -6 0 10 -258079
-1 -1;
#X text 340 55 open graphics window;
#X obj 325 73 ehu/gem/win 400 300;
#X text 10 -2 ** the graphics window MUST be selected to detect the
events **;
#X obj 87 218 osc~ 300;
#X obj 168 220 osc~ 400;
#X obj 243 223 osc~ 500;
#X obj 228 436 ehu/out~;
#X obj 96 296 *~;
#X obj 169 295 *~;
#X obj 243 296 *~;
#X obj 257 367 +~;
#X msg 100 140 1;
#X msg 133 140 0;
#X msg 183 139 1;
#X msg 216 139 0;
#X obj 337 310 *~;
#X obj 410 309 *~;
#X obj 484 310 *~;
#X obj 81 42 key;
#X obj 198 62 print key;
#X obj 13 40 keyup;
#X obj 484 28 gemkeyboard;
#X msg 258 137 1;
#X msg 294 138 0;
#X msg 336 136 1;
#X msg 372 137 0;
#X obj 328 232 osc~ 600;
#X obj 81 84 select 103 102 100 115 97 119;
#X msg 410 136 1;
#X msg 446 137 0;
#X obj 409 234 osc~ 700;
#X msg 488 134 1;
#X msg 524 135 0;
#X obj 484 237 osc~ 800;
#X connect 0 0 2 0;
#X connect 4 0 8 0;
#X connect 5 0 9 0;
#X connect 6 0 10 0;
#X connect 8 0 11 0;
#X connect 9 0 11 0;
#X connect 10 0 11 0;
#X connect 11 0 7 0;
#X connect 11 0 7 1;
#X connect 12 0 13 0;
#X connect 12 0 8 1;
#X connect 13 0 9 1;
#X connect 13 0 10 1;
#X connect 13 0 16 1;
#X connect 13 0 17 1;
#X connect 13 0 18 1;
#X connect 14 0 15 0;
#X connect 14 0 9 1;
#X connect 15 0 8 1;
#X connect 15 0 10 1;
#X connect 15 0 16 1;
#X connect 15 0 17 1;
#X connect 15 0 18 1;
#X connect 16 0 11 0;
#X connect 17 0 11 0;
#X connect 18 0 11 0;
#X connect 19 0 20 0;
#X connect 19 0 28 0;
#X connect 23 0 24 0;
#X connect 23 0 10 1;
#X connect 24 0 9 1;
#X connect 24 0 8 1;
#X connect 24 0 16 1;
#X connect 24 0 17 1;
#X connect 24 0 18 1;
#X connect 25 0 26 0;
#X connect 25 0 16 1;
#X connect 26 0 8 1;
#X connect 26 0 9 1;
#X connect 26 0 10 1;
#X connect 26 0 17 1;
#X connect 26 0 18 1;
#X connect 27 0 16 0;
#X connect 28 0 12 0;
#X connect 28 1 14 0;
#X connect 28 2 23 0;
#X connect 28 3 25 0;
#X connect 28 4 29 0;
#X connect 28 5 32 0;
#X connect 29 0 30 0;
#X connect 29 0 17 1;
#X connect 30 0 16 1;
#X connect 30 0 10 1;
#X connect 30 0 9 1;
#X connect 30 0 8 1;
#X connect 30 0 18 1;
#X connect 31 0 17 0;
#X connect 32 0 33 0;
#X connect 32 0 18 1;
#X connect 33 0 17 1;
#X connect 33 0 16 1;
#X connect 33 0 10 1;
#X connect 33 0 9 1;
#X connect 33 0 8 1;
#X connect 34 0 18 0;
