#N canvas 418 91 636 520 24;
#X declare -lib ggee;
#X declare -lib ggee;
#X obj 64 23 MouseState;
#X obj 52 135 tgl 70 0 empty empty empty 17 7 0 50 -262144 -1 -1 1
1;
#X obj 65 416 ehu/out~;
#X obj 51 340 ehu/splayer~;
#X obj 227 274 ehu/abs_path;
#X obj 231 232 ehu/loop_list;
#X obj 295 79 ehu/dsp;
#X text -57 201 ehu/dsp >>;
#X floatatom -34 101 5 0 0 0 - - -;
#X msg 215 76 0;
#X text 232 100 no loop;
#X obj 226 204 bng 15 250 50 0 empty empty empty 17 7 0 10 -262144
-1 -1;
#X obj 231 36 loadbang;
#X obj 319 317 print;
#X obj 57 76 t f b;
#X msg 257 151 1.wav 2.wav 3.wav;
#X connect 0 0 14 0;
#X connect 1 0 3 0;
#X connect 3 0 2 0;
#X connect 3 1 2 1;
#X connect 4 0 3 1;
#X connect 5 0 4 0;
#X connect 8 0 3 0;
#X connect 9 0 3 2;
#X connect 11 0 5 0;
#X connect 12 0 9 0;
#X connect 12 0 6 0;
#X connect 12 0 15 0;
#X connect 14 0 1 0;
#X connect 14 1 11 0;
#X connect 15 0 5 1;
