#N canvas 21 226 618 505 10;
#X obj 348 29 bng 30 250 50 0 empty empty click_me 0 -6 0 10 -258079
-1 -1;
#X text 340 55 open graphics window;
#X obj 348 73 ehu/gem/win 400 300;
#X text 10 -2 ** the graphics window MUST be selected to detect the
events **;
#X obj 87 248 osc~ 300;
#X obj 168 250 osc~ 400;
#X obj 243 253 osc~ 500;
#X obj 228 466 ehu/out~;
#X obj 96 326 *~;
#X obj 169 325 *~;
#X obj 243 326 *~;
#X obj 257 397 +~;
#X obj 337 340 *~;
#X obj 410 339 *~;
#X obj 484 340 *~;
#X obj 328 262 osc~ 600;
#X obj 409 264 osc~ 700;
#X obj 484 267 osc~ 800;
#X obj 81 42 ehu/gem/mouse;
#X obj 106 141 cyclone/counter 0 1;
#X floatatom 106 162 5 0 0 0 - - -, f 5;
#X obj 106 181 select 0 1;
#X msg 106 209 1;
#X msg 139 209 1;
#X msg 119 108 0;
#X obj 274 141 cyclone/counter 0 1;
#X floatatom 274 162 5 0 0 0 - - -, f 5;
#X obj 274 181 select 0 1;
#X msg 274 209 1;
#X msg 307 209 1;
#X msg 287 108 0;
#X obj 441 150 cyclone/counter 0 1;
#X floatatom 441 171 5 0 0 0 - - -, f 5;
#X obj 441 190 select 0 1;
#X msg 441 218 1;
#X msg 474 218 1;
#X msg 454 117 0;
#X connect 0 0 2 0;
#X connect 4 0 8 0;
#X connect 5 0 9 0;
#X connect 6 0 10 0;
#X connect 8 0 11 0;
#X connect 9 0 11 0;
#X connect 10 0 11 0;
#X connect 11 0 7 0;
#X connect 11 0 7 1;
#X connect 12 0 11 0;
#X connect 13 0 11 0;
#X connect 14 0 11 0;
#X connect 15 0 12 0;
#X connect 16 0 13 0;
#X connect 17 0 14 0;
#X connect 18 2 19 0;
#X connect 18 3 24 0;
#X connect 18 4 25 0;
#X connect 18 5 30 0;
#X connect 18 6 31 0;
#X connect 18 7 36 0;
#X connect 19 0 20 0;
#X connect 20 0 21 0;
#X connect 21 0 22 0;
#X connect 21 1 23 0;
#X connect 22 0 8 1;
#X connect 23 0 12 1;
#X connect 24 0 8 1;
#X connect 24 0 12 1;
#X connect 25 0 26 0;
#X connect 26 0 27 0;
#X connect 27 0 28 0;
#X connect 27 1 29 0;
#X connect 28 0 9 1;
#X connect 29 0 13 1;
#X connect 30 0 9 1;
#X connect 30 0 13 1;
#X connect 31 0 32 0;
#X connect 32 0 33 0;
#X connect 33 0 34 0;
#X connect 33 1 35 0;
#X connect 34 0 10 1;
#X connect 35 0 14 1;
#X connect 36 0 10 1;
#X connect 36 0 14 1;
