#N canvas 64 223 450 300 10;
#X obj 80 163 osc~;
#X obj 80 139 mtof;
#X obj 79 203 +~;
#X obj 116 182 osc~;
#X obj 80 38 tgl 15 0 empty empty empty 17 7 0 10 -262144 -1 -1 1 1
;
#X obj 80 61 select 1;
#X obj 79 265 outlet~;
#X obj 80 86 f;
#X obj 179 69 \$1;
#X obj 179 47 loadbang;
#X obj 167 181 line;
#X obj 80 244 *~;
#X obj 80 15 inlet;
#X obj 116 163 + 0.1;
#X obj 80 109 t f f;
#X msg 167 158 1 80;
#X msg 201 158 0 80;
#X connect 0 0 2 0;
#X connect 1 0 0 0;
#X connect 1 0 13 0;
#X connect 2 0 11 0;
#X connect 3 0 2 1;
#X connect 4 0 5 0;
#X connect 5 0 7 0;
#X connect 5 1 16 0;
#X connect 7 0 14 0;
#X connect 8 0 7 1;
#X connect 9 0 8 0;
#X connect 10 0 11 1;
#X connect 11 0 6 0;
#X connect 12 0 4 0;
#X connect 13 0 3 0;
#X connect 14 0 1 0;
#X connect 14 1 15 0;
#X connect 15 0 10 0;
#X connect 16 0 10 0;
