#N canvas 206 81 611 652 10;
#X declare -lib ggee;
#X declare -lib ggee;
#X declare -lib ggee;
#X declare -lib ggee;
#X declare -lib ggee;
#X obj 81 91 print;
#X text 206 31 pass the name of a file that lives next to this patch
;
#X text 172 88 and abs_path will return the absolute path to that file
;
#X obj 390 301 ehu/splayer~ whistle.wav;
#X text 37 140 ALL EHU object that load files (picture \, video \,
splayer~ splayer2~) can receive the file to load as argument.;
#X text 39 171 Otherwise you should use abs_path to pass the path to
the objects;
#X obj 30 443 ehu/gem/video whistle.mp4;
#X text 35 202 This allows to move your files across directories or
computers with no path problems;
#X obj 230 283 ehu/abs_path;
#X obj 437 267 ehu/abs_path;
#X obj 358 403 ehu/abs_path;
#X obj 89 411 ehu/abs_path;
#X obj 81 59 ehu/abs_path;
#X msg 81 29 videos/whistle.mp4;
#X msg 230 255 picts/imagen1.jpg;
#X msg 437 240 sounds/whistle2.wav;
#X msg 89 388 videos/whistle.mp4;
#X obj 35 309 ehu/gem/picture picst/imagen1.jpg;
#X obj 343 431 ehu/splayer2~ sounds/whistle2.wav;
#X msg 358 379 sounds/whistle.wav;
#X connect 8 0 17 1;
#X connect 9 0 3 1;
#X connect 10 0 18 1;
#X connect 11 0 6 2;
#X connect 12 0 0 0;
#X connect 13 0 12 0;
#X connect 14 0 8 0;
#X connect 15 0 9 0;
#X connect 16 0 11 0;
#X connect 19 0 10 0;
