#N canvas 454 295 796 281 10;
#X obj 31 9 bng 30 250 50 0 empty empty start_all 17 7 0 10 -258113
-1 -1;
#X obj 31 50 ehu/gem/win 640 480;
#X obj 31 180 ehu/gem/texture 320 240 640 480;
#X obj 31 74 ehu/dsp;
#X obj 296 186 ehu/out~;
#X text 399 17 Because the way PD GEM deals with video the sound chanel
of the videos do not get played when we play a video file. To solve
this the ehu/ehu/video abstraction looks for a WAV sound file located
next to the video file we are importing. This file should contain the
sound chanel of the video (export it from your video editor). The sound
file must be named the same as the video but with .WAV extension. For
instance: whistle.mp4 and whistle.wav Please beware that playing around
with pitch might cause the sound to fail in sync with the video.;
#X obj 33 117 tgl 15 0 empty empty empty 17 7 0 10 -262144 -1 -1 0
1;
#X obj 63 120 tgl 15 0 empty empty empty 17 7 0 10 -262144 -1 -1 0
1;
#X msg 94 101 videos/whistle.mp4;
#X obj 33 142 ehu/gem/svideo;
#X floatatom 188 122 5 0 0 0 - - -, f 5;
#X connect 0 0 1 0;
#X connect 0 0 3 0;
#X connect 6 0 9 0;
#X connect 7 0 9 1;
#X connect 8 0 9 2;
#X connect 9 0 2 0;
#X connect 9 6 4 0;
#X connect 9 7 4 1;
#X connect 10 0 9 3;
