#N canvas 329 57 490 702 12;
#X declare -lib ggee;
#X declare -lib ggee;
#X obj 29 103 ehu/splayer~;
#X obj 63 637 ehu/out~;
#X obj 56 73 ehu/abs_path;
#X msg 94 28 whistle.wav;
#X obj 45 447 ehu/distortion~;
#X obj 39 236 ehu/rev~;
#X obj 30 159 ehu/ring~;
#X text 182 464 ehu/distortion~;
#X text 220 380 ehu/del~;
#X text 177 276 ehu/rev~;
#X text 139 176 ehu/ring~;
#X obj 54 526 ehu/foldover~;
#X obj 29 34 tgl 15 0 empty empty empty 17 7 0 10 -262144 -1 -1 1 1
;
#X obj 43 368 ehu/del~ 3000;
#X obj 330 564 ehu/plot;
#X text 188 549 ehu/foldover~;
#X text 30 4 click this two;
#X obj 331 123 ehu/dsp;
#X obj 282 69 loadbang;
#X obj 284 91 t b b b;
#X connect 0 0 6 0;
#X connect 0 1 6 1;
#X connect 2 0 0 1;
#X connect 3 0 2 0;
#X connect 4 0 11 0;
#X connect 4 1 11 1;
#X connect 5 0 13 0;
#X connect 5 1 13 1;
#X connect 6 0 5 0;
#X connect 6 1 5 1;
#X connect 11 0 1 0;
#X connect 11 1 1 1;
#X connect 11 1 14 0;
#X connect 12 0 0 0;
#X connect 13 0 4 0;
#X connect 13 1 4 1;
#X connect 18 0 19 0;
#X connect 19 0 12 0;
#X connect 19 1 3 0;
#X connect 19 2 17 0;
