#N canvas 375 52 457 644 10;
#X obj 141 585 ehu/out~;
#X msg 186 21 whistle2.wav;
#X obj 186 47 ehu/abs_path;
#X obj 150 84 ehu/splayer2~;
#X obj 312 41 ehu/in~;
#X floatatom 297 283 5 0 0 0 - - -, f 5;
#X obj 148 272 ehu/rev~;
#X obj 148 397 ehu/foldover~;
#X obj 150 496 ehu/vibrato~;
#X connect 1 0 2 0;
#X connect 2 0 3 1;
#X connect 3 0 6 0;
#X connect 3 1 6 1;
#X connect 3 2 5 0;
#X connect 4 0 3 12;
#X connect 4 1 3 13;
#X connect 5 0 3 4;
#X connect 5 0 8 3;
#X connect 6 0 7 0;
#X connect 6 1 7 1;
#X connect 7 0 8 0;
#X connect 7 1 8 1;
#X connect 8 0 0 0;
#X connect 8 1 0 1;
