#N canvas 322 119 653 418 10;
#X declare -lib ggee;
#X obj 84 35 bng 15 250 50 0 empty empty empty 0 -6 0 8 -262144 -1
-1;
#X obj 21 87 route addObject removeObject updateObject;
#X text 127 50 see the help patch for the TuioClient for more info
;
#X text 203 152 x-axis;
#X obj 182 127 unpack \$1 \$2 \$3 \$4 \$5;
#X text 55 120 ON;
#X text 108 121 OFF;
#X text 253 152 y-axis;
#X text 301 151 angle;
#X obj 459 61 tgl 25 0 empty empty empty 17 7 0 10 -258113 -1 -1 0
1;
#X obj 21 13 TuioClient;
#X msg 27 121 1;
#X msg 83 122 0;
#X text 126 13 simple example patch mapping the coordinates of a single
object to x=width \, y=height and z=currentframe of a simple video
;
#X obj 305 172 * 10;
#X text 208 189 width;
#X text 255 191 height;
#X text 303 191 frame;
#X obj 210 171 * 800;
#X obj 459 90 ehu/gem/win 800 600;
#X obj 257 171 * 600;
#X obj 36 60 print TUIO;
#X obj 231 326 ehu/gem/texture 0 0 800 600;
#X obj 182 236 ehu/gem/video whistle.mp4;
#X connect 1 0 11 0;
#X connect 1 1 12 0;
#X connect 1 2 4 0;
#X connect 4 2 18 0;
#X connect 4 3 20 0;
#X connect 4 4 14 0;
#X connect 9 0 19 0;
#X connect 10 0 1 0;
#X connect 10 0 21 0;
#X connect 10 1 0 0;
#X connect 11 0 23 0;
#X connect 12 0 23 0;
#X connect 18 0 22 4;
#X connect 20 0 22 5;
#X connect 23 0 22 0;
#X connect 23 1 14 1;
